<svg xmlns="http://www.w3.org/2000/svg" xmlns:xlink="http://www.w3.org/1999/xlink" width="779" height="254" viewbox="0 0 779 254"><path transform="translate(36.709829840284144 75.37411480098609) scale(1) translate(123.00592028395442 26.711722701360898) rotate(113.03165714845196)" d="M 12 0 L 77.52565192821102 0" fill="none" stroke="#000000" stroke-width="2"></path><polygon transform="translate(36.709829840284144 75.37411480098609) scale(1) translate(123.00592028395442 26.711722701360898) rotate(113.03165714845196) translate(91.68078178343309 0) rotate(0)" points="-14.155129855222071,0 -15.727922061357857,5.242640687119286 0,0 -15.727922061357857,-5.242640687119286" fill="undefined" stroke="none" stroke-width="2"></polygon><rect transform="translate(36.709829840284144 75.37411480098609) scale(1) translate(105.49292713654368 67.90645123926419) rotate(293.031657148452) translate(0 -10) translate(0 0) translate(-19.45068359375 0)" x="0" y="0" width="38.9013671875" height="20" rx="5" ry="5" fill="#ffffff" stroke="none"></rect><text xml:space="preserve" transform="translate(36.709829840284144 75.37411480098609) scale(1) translate(105.49292713654368 67.90645123926419) rotate(293.031657148452) translate(0 -10) translate(0 0) translate(-19.45068359375 0)" x="5" y="13" font-family="sans-serif" font-size="10" font-weight="normal" text-anchor="left" fill="#000000">isType</text><path transform="translate(36.709829840284144 75.37411480098609) scale(1) translate(269.61767016873443 57.75182164000386) rotate(-168.04606955815896)" d="M 7 0 L 123.7064494317921 0" fill="none" stroke="#000000" stroke-width="2"></path><polygon transform="translate(36.709829840284144 75.37411480098609) scale(1) translate(269.61767016873443 57.75182164000386) rotate(-168.04606955815896) translate(137.86157928701417 0) rotate(0)" points="-14.155129855222071,0 -15.727922061357857,5.242640687119286 0,0 -15.727922061357857,-5.242640687119286" fill="undefined" stroke="none" stroke-width="2"></polygon><rect transform="translate(36.709829840284144 75.37411480098609) scale(1) translate(205.68166547829784 44.215526541607275) rotate(11.953930441841042) translate(0 -10) translate(0 0) translate(-18.896484375 0)" x="0" y="0" width="37.79296875" height="20" rx="5" ry="5" fill="#ffffff" stroke="none"></rect><text xml:space="preserve" transform="translate(36.709829840284144 75.37411480098609) scale(1) translate(205.68166547829784 44.215526541607275) rotate(11.953930441841042) translate(0 -10) translate(0 0) translate(-18.896484375 0)" x="5" y="13" font-family="sans-serif" font-size="10" font-weight="normal" text-anchor="left" fill="#000000">Target</text><path transform="translate(36.709829840284144 75.37411480098609) scale(1) translate(385.03118158819257 -30.374114800986085) rotate(142.63584486183888)" d="M 12 0 L 124.0566440881149 0" fill="none" stroke="#000000" stroke-width="2"></path><polygon transform="translate(36.709829840284144 75.37411480098609) scale(1) translate(385.03118158819257 -30.374114800986085) rotate(142.63584486183888) translate(138.21177394333696 0) rotate(0)" points="-14.155129855222071,0 -15.727922061357857,5.242640687119286 0,0 -15.727922061357857,-5.242640687119286" fill="undefined" stroke="none" stroke-width="2"></polygon><rect transform="translate(36.709829840284144 75.37411480098609) scale(1) translate(330.96264905899085 10.910826645849575) rotate(322.63584486183885) translate(0 -10) translate(0 0) translate(-22.7880859375 0)" x="0" y="0" width="45.576171875" height="20" rx="5" ry="5" fill="#ffffff" stroke="none"></rect><text xml:space="preserve" transform="translate(36.709829840284144 75.37411480098609) scale(1) translate(330.96264905899085 10.910826645849575) rotate(322.63584486183885) translate(0 -10) translate(0 0) translate(-22.7880859375 0)" x="5" y="13" font-family="sans-serif" font-size="10" font-weight="normal" text-anchor="left" fill="#000000">Created</text><path transform="translate(36.709829840284144 75.37411480098609) scale(1) translate(385.03118158819257 -30.374114800986085) rotate(0)" d="M 12 0 L 119.05664408811492 0" fill="none" stroke="#000000" stroke-width="2"></path><polygon transform="translate(36.709829840284144 75.37411480098609) scale(1) translate(385.03118158819257 -30.374114800986085) rotate(0) translate(133.211773943337 0) rotate(0)" points="-14.155129855222071,0 -15.727922061357857,5.242640687119286 0,0 -15.727922061357857,-5.242640687119286" fill="undefined" stroke="none" stroke-width="2"></polygon><rect transform="translate(36.709829840284144 75.37411480098609) scale(1) translate(450.55950363225 -30.374114800986085) rotate(0) translate(0 -10) translate(0 0) translate(-32.51708984375 0)" x="0" y="0" width="65.0341796875" height="20" rx="5" ry="5" fill="#ffffff" stroke="none"></rect><text xml:space="preserve" transform="translate(36.709829840284144 75.37411480098609) scale(1) translate(450.55950363225 -30.374114800986085) rotate(0) translate(0 -10) translate(0 0) translate(-32.51708984375 0)" x="5" y="13" font-family="sans-serif" font-size="10" font-weight="normal" text-anchor="left" fill="#000000">isAgentType</text><path transform="translate(36.709829840284144 75.37411480098609) scale(1) translate(269.61767016873443 57.75182164000386) rotate(40.4436091240947)" d="M 7 0 L 125.49627517867515 0" fill="none" stroke="#000000" stroke-width="2"></path><polygon transform="translate(36.709829840284144 75.37411480098609) scale(1) translate(269.61767016873443 57.75182164000386) rotate(40.4436091240947) translate(139.65140503389722 0) rotate(0)" points="-14.155129855222071,0 -15.727922061357857,5.242640687119286 0,0 -15.727922061357857,-5.242640687119286" fill="undefined" stroke="none" stroke-width="2"></polygon><rect transform="translate(36.709829840284144 75.37411480098609) scale(1) translate(320.03547000696096 100.7269446011814) rotate(40.4436091240947) translate(0 -10) translate(0 0) translate(-16.396484375 0)" x="0" y="0" width="32.79296875" height="20" rx="5" ry="5" fill="#ffffff" stroke="none"></rect><text xml:space="preserve" transform="translate(36.709829840284144 75.37411480098609) scale(1) translate(320.03547000696096 100.7269446011814) rotate(40.4436091240947) translate(0 -10) translate(0 0) translate(-16.396484375 0)" x="5" y="13" font-family="sans-serif" font-size="10" font-weight="normal" text-anchor="left" fill="#000000">Body</text><path transform="translate(36.709829840284144 75.37411480098609) scale(1) translate(451.0386662878972 26.711722701360898) rotate(170.29102786515975)" d="M 12 0 L 162.90210465347636 0" fill="none" stroke="#000000" stroke-width="2"></path><polygon transform="translate(36.709829840284144 75.37411480098609) scale(1) translate(451.0386662878972 26.711722701360898) rotate(170.29102786515975) translate(177.05723450869843 0) rotate(0)" points="-14.155129855222071,0 -15.727922061357857,5.242640687119286 0,0 -15.727922061357857,-5.242640687119286" fill="undefined" stroke="none" stroke-width="2"></polygon><rect transform="translate(36.709829840284144 75.37411480098609) scale(1) translate(364.840169026242 41.459794537581566) rotate(350.2910278651598) translate(0 -10) translate(0 0) translate(-28.6279296875 0)" x="0" y="0" width="57.255859375" height="20" rx="5" ry="5" fill="#ffffff" stroke="none"></rect><text xml:space="preserve" transform="translate(36.709829840284144 75.37411480098609) scale(1) translate(364.840169026242 41.459794537581566) rotate(350.2910278651598) translate(0 -10) translate(0 0) translate(-28.6279296875 0)" x="5" y="13" font-family="sans-serif" font-size="10" font-weight="normal" text-anchor="left" fill="#000000">Generated</text><path transform="translate(36.709829840284144 75.37411480098609) scale(1) translate(451.0386662878972 26.711722701360898) rotate(33.521426770075564)" d="M 12 0 L 95.23961066928271 0" fill="none" stroke="#000000" stroke-width="2"></path><polygon transform="translate(36.709829840284144 75.37411480098609) scale(1) translate(451.0386662878972 26.711722701360898) rotate(33.521426770075564) translate(109.39474052450478 0) rotate(0)" points="-14.155129855222071,0 -15.727922061357857,5.242640687119286 0,0 -15.727922061357857,-5.242640687119286" fill="undefined" stroke="none" stroke-width="2"></polygon><rect transform="translate(36.709829840284144 75.37411480098609) scale(1) translate(495.7403911305719 56.32319548159646) rotate(33.521426770075564) translate(0 -10) translate(0 0) translate(-32.51708984375 0)" x="0" y="0" width="65.0341796875" height="20" rx="5" ry="5" fill="#ffffff" stroke="none"></rect><text xml:space="preserve" transform="translate(36.709829840284144 75.37411480098609) scale(1) translate(495.7403911305719 56.32319548159646) rotate(33.521426770075564) translate(0 -10) translate(0 0) translate(-32.51708984375 0)" x="5" y="13" font-family="sans-serif" font-size="10" font-weight="normal" text-anchor="left" fill="#000000">isAgentType</text><path transform="translate(36.709829840284144 75.37411480098609) scale(1) translate(385.03118158819257 156.12798760811705) rotate(180)" d="M 12 0 L 89.25838156423606 0" fill="none" stroke="#000000" stroke-width="2"></path><polygon transform="translate(36.709829840284144 75.37411480098609) scale(1) translate(385.03118158819257 156.12798760811705) rotate(180) translate(103.41351141945813 0) rotate(0)" points="-14.155129855222071,0 -15.727922061357857,5.242640687119286 0,0 -15.727922061357857,-5.242640687119286" fill="undefined" stroke="none" stroke-width="2"></polygon><rect transform="translate(36.709829840284144 75.37411480098609) scale(1) translate(334.40199080607454 156.12798760811705) rotate(360) translate(0 -10) translate(0 0) translate(-19.45068359375 0)" x="0" y="0" width="38.9013671875" height="20" rx="5" ry="5" fill="#ffffff" stroke="none"></rect><text xml:space="preserve" transform="translate(36.709829840284144 75.37411480098609) scale(1) translate(334.40199080607454 156.12798760811705) rotate(360) translate(0 -10) translate(0 0) translate(-19.45068359375 0)" x="5" y="13" font-family="sans-serif" font-size="10" font-weight="normal" text-anchor="left" fill="#000000">isType</text><circle transform="translate(36.709829840284144 75.37411480098609) scale(1)" cx="82.44188569088658" cy="122.12798760811705" r="11" fill="#7b64ff" stroke="#000000" strokewidth="2"></circle><rect transform="translate(36.709829840284144 75.37411480098609) scale(1) translate(82.44188569088658 122.12798760811705) translate(-8.48528137423857 8.485281374238571) translate(0 0) translate(-42.1181640625 0)" x="0" y="0" width="40.1181640625" height="14" rx="7" ry="7" fill="#ffffff" stroke="#000000"></rect><text xml:space="preserve" transform="translate(36.709829840284144 75.37411480098609) scale(1) translate(82.44188569088658 122.12798760811705) translate(-8.48528137423857 8.485281374238571) translate(0 0) translate(-42.1181640625 0)" x="7" y="10" font-family="sans-serif" font-size="10" font-weight="normal" text-anchor="undefined" fill="#000000">TYPE</text><rect transform="translate(36.709829840284144 75.37411480098609) scale(1) translate(82.44188569088658 122.12798760811705) translate(-8.48528137423857 8.485281374238571) translate(0 20) translate(-57.7978515625 0)" x="0" y="0" width="57.7978515625" height="12" rx="0" ry="0" fill="white" stroke="none"></rect><text xml:space="preserve" transform="translate(36.709829840284144 75.37411480098609) scale(1) translate(82.44188569088658 122.12798760811705) translate(-8.48528137423857 8.485281374238571) translate(0 20) translate(-57.7978515625 0)" x="24.4580078125" y="9" font-family="sans-serif" font-size="10" font-weight="normal" text-anchor="end" fill="#000000">type:</text><text xml:space="preserve" transform="translate(36.709829840284144 75.37411480098609) scale(1) translate(82.44188569088658 122.12798760811705) translate(-8.48528137423857 8.485281374238571) translate(0 20) translate(-57.7978515625 0)" x="27.236328125" y="9" font-family="sans-serif" font-size="10" font-weight="normal" text-anchor="start" fill="#000000">Article</text><circle transform="translate(36.709829840284144 75.37411480098609) scale(1)" cx="123.00592028395442" cy="26.711722701360898" r="11" fill="#e27300" stroke="#000000" strokewidth="2"></circle><rect transform="translate(36.709829840284144 75.37411480098609) scale(1) translate(123.00592028395442 26.711722701360898) translate(-8.48528137423857 -52.48528137423857) translate(0 0) translate(-55.4482421875 0)" x="0" y="0" width="53.4482421875" height="14" rx="7" ry="7" fill="#ffffff" stroke="#000000"></rect><text xml:space="preserve" transform="translate(36.709829840284144 75.37411480098609) scale(1) translate(123.00592028395442 26.711722701360898) translate(-8.48528137423857 -52.48528137423857) translate(0 0) translate(-55.4482421875 0)" x="7" y="10" font-family="sans-serif" font-size="10" font-weight="normal" text-anchor="undefined" fill="#000000">OBJECT</text><rect transform="translate(36.709829840284144 75.37411480098609) scale(1) translate(123.00592028395442 26.711722701360898) translate(-8.48528137423857 -52.48528137423857) translate(0 20) translate(-151.23046875 0)" x="0" y="0" width="151.23046875" height="24" rx="0" ry="0" fill="white" stroke="none"></rect><text xml:space="preserve" transform="translate(36.709829840284144 75.37411480098609) scale(1) translate(123.00592028395442 26.711722701360898) translate(-8.48528137423857 -52.48528137423857) translate(0 20) translate(-151.23046875 0)" x="70.048828125" y="9" font-family="sans-serif" font-size="10" font-weight="normal" text-anchor="end" fill="#000000">id:</text><text xml:space="preserve" transform="translate(36.709829840284144 75.37411480098609) scale(1) translate(123.00592028395442 26.711722701360898) translate(-8.48528137423857 -52.48528137423857) translate(0 20) translate(-151.23046875 0)" x="72.8271484375" y="9" font-family="sans-serif" font-size="10" font-weight="normal" text-anchor="start" fill="#000000">10.2345/124343r</text><text xml:space="preserve" transform="translate(36.709829840284144 75.37411480098609) scale(1) translate(123.00592028395442 26.711722701360898) translate(-8.48528137423857 -52.48528137423857) translate(0 20) translate(-151.23046875 0)" x="70.048828125" y="21" font-family="sans-serif" font-size="10" font-weight="normal" text-anchor="end" fill="#000000">additionalType:</text><text xml:space="preserve" transform="translate(36.709829840284144 75.37411480098609) scale(1) translate(123.00592028395442 26.711722701360898) translate(-8.48528137423857 -52.48528137423857) translate(0 20) translate(-151.23046875 0)" x="72.8271484375" y="21" font-family="sans-serif" font-size="10" font-weight="normal" text-anchor="start" fill="#000000">doi</text><circle transform="translate(36.709829840284144 75.37411480098609) scale(1)" cx="269.61767016873443" cy="57.75182164000386" r="6" fill="#9f0500" stroke="#000000" strokewidth="2"></circle><rect transform="translate(36.709829840284144 75.37411480098609) scale(1) translate(269.61767016873443 57.75182164000386) translate(-4.949747468305832 4.949747468305833) translate(0 0) translate(-80.072265625 0)" x="0" y="0" width="78.072265625" height="14" rx="7" ry="7" fill="#ffffff" stroke="#000000"></rect><text xml:space="preserve" transform="translate(36.709829840284144 75.37411480098609) scale(1) translate(269.61767016873443 57.75182164000386) translate(-4.949747468305832 4.949747468305833) translate(0 0) translate(-80.072265625 0)" x="7" y="10" font-family="sans-serif" font-size="10" font-weight="normal" text-anchor="undefined" fill="#000000">ANNOTATION</text><circle transform="translate(36.709829840284144 75.37411480098609) scale(1)" cx="385.03118158819257" cy="-30.374114800986085" r="11" fill="#68bc00" stroke="#000000" strokewidth="2"></circle><rect transform="translate(36.709829840284144 75.37411480098609) scale(1) translate(385.03118158819257 -30.374114800986085) translate(7.347880794884119e-16 -44) translate(0 0) translate(-25.22412109375 0)" x="0" y="0" width="48.4482421875" height="14" rx="7" ry="7" fill="#ffffff" stroke="#000000"></rect><text xml:space="preserve" transform="translate(36.709829840284144 75.37411480098609) scale(1) translate(385.03118158819257 -30.374114800986085) translate(7.347880794884119e-16 -44) translate(0 0) translate(-25.22412109375 0)" x="7" y="10" font-family="sans-serif" font-size="10" font-weight="normal" text-anchor="undefined" fill="#000000">AGENT</text><rect transform="translate(36.709829840284144 75.37411480098609) scale(1) translate(385.03118158819257 -30.374114800986085) translate(7.347880794884119e-16 -44) translate(0 20) translate(-59.48974609375 0)" x="0" y="0" width="118.9794921875" height="12" rx="0" ry="0" fill="white" stroke="none"></rect><text xml:space="preserve" transform="translate(36.709829840284144 75.37411480098609) scale(1) translate(385.03118158819257 -30.374114800986085) translate(7.347880794884119e-16 -44) translate(0 20) translate(-59.48974609375 0)" x="13.33984375" y="9" font-family="sans-serif" font-size="10" font-weight="normal" text-anchor="end" fill="#000000">id:</text><text xml:space="preserve" transform="translate(36.709829840284144 75.37411480098609) scale(1) translate(385.03118158819257 -30.374114800986085) translate(7.347880794884119e-16 -44) translate(0 20) translate(-59.48974609375 0)" x="16.1181640625" y="9" font-family="sans-serif" font-size="10" font-weight="normal" text-anchor="start" fill="#000000">0000-0000-0000-000X</text><circle transform="translate(36.709829840284144 75.37411480098609) scale(1)" cx="530.2429555315296" cy="-30.374114800986085" r="11" fill="#a4dd00" stroke="#000000" strokewidth="2"></circle><rect transform="translate(36.709829840284144 75.37411480098609) scale(1) translate(530.2429555315296 -30.374114800986085) translate(12 -16) translate(0 0) translate(0 0)" x="0" y="0" width="74.56640625" height="14" rx="7" ry="7" fill="#ffffff" stroke="#000000"></rect><text xml:space="preserve" transform="translate(36.709829840284144 75.37411480098609) scale(1) translate(530.2429555315296 -30.374114800986085) translate(12 -16) translate(0 0) translate(0 0)" x="7" y="10" font-family="sans-serif" font-size="10" font-weight="normal" text-anchor="undefined" fill="#000000">AGENTTYPE</text><rect transform="translate(36.709829840284144 75.37411480098609) scale(1) translate(530.2429555315296 -30.374114800986085) translate(12 -16) translate(0 20) translate(0 0)" x="0" y="0" width="89.501953125" height="12" rx="0" ry="0" fill="white" stroke="none"></rect><text xml:space="preserve" transform="translate(36.709829840284144 75.37411480098609) scale(1) translate(530.2429555315296 -30.374114800986085) translate(12 -16) translate(0 20) translate(0 0)" x="52.2607421875" y="9" font-family="sans-serif" font-size="10" font-weight="normal" text-anchor="end" fill="#000000">agentType:</text><text xml:space="preserve" transform="translate(36.709829840284144 75.37411480098609) scale(1) translate(530.2429555315296 -30.374114800986085) translate(12 -16) translate(0 20) translate(0 0)" x="55.0390625" y="9" font-family="sans-serif" font-size="10" font-weight="normal" text-anchor="start" fill="#000000">Person</text><circle transform="translate(36.709829840284144 75.37411480098609) scale(1)" cx="385.03118158819257" cy="156.12798760811705" r="11" fill="#e27300" stroke="#000000" strokewidth="2"></circle><rect transform="translate(36.709829840284144 75.37411480098609) scale(1) translate(385.03118158819257 156.12798760811705) translate(12 -22) translate(0 0) translate(0 0)" x="0" y="0" width="53.4482421875" height="14" rx="7" ry="7" fill="#ffffff" stroke="#000000"></rect><text xml:space="preserve" transform="translate(36.709829840284144 75.37411480098609) scale(1) translate(385.03118158819257 156.12798760811705) translate(12 -22) translate(0 0) translate(0 0)" x="7" y="10" font-family="sans-serif" font-size="10" font-weight="normal" text-anchor="undefined" fill="#000000">OBJECT</text><rect transform="translate(36.709829840284144 75.37411480098609) scale(1) translate(385.03118158819257 156.12798760811705) translate(12 -22) translate(0 20) translate(0 0)" x="0" y="0" width="344.4970703125" height="24" rx="0" ry="0" fill="white" stroke="none"></rect><text xml:space="preserve" transform="translate(36.709829840284144 75.37411480098609) scale(1) translate(385.03118158819257 156.12798760811705) translate(12 -22) translate(0 20) translate(0 0)" x="42.8076171875" y="9" font-family="sans-serif" font-size="10" font-weight="normal" text-anchor="end" fill="#000000">value:</text><text xml:space="preserve" transform="translate(36.709829840284144 75.37411480098609) scale(1) translate(385.03118158819257 156.12798760811705) translate(12 -22) translate(0 20) translate(0 0)" x="45.5859375" y="9" font-family="sans-serif" font-size="10" font-weight="normal" text-anchor="start" fill="#000000">{latitude:13.3, longitude:143.23}</text><text xml:space="preserve" transform="translate(36.709829840284144 75.37411480098609) scale(1) translate(385.03118158819257 156.12798760811705) translate(12 -22) translate(0 20) translate(0 0)" x="42.8076171875" y="21" font-family="sans-serif" font-size="10" font-weight="normal" text-anchor="end" fill="#000000">highlight:</text><text xml:space="preserve" transform="translate(36.709829840284144 75.37411480098609) scale(1) translate(385.03118158819257 156.12798760811705) translate(12 -22) translate(0 20) translate(0 0)" x="45.5859375" y="21" font-family="sans-serif" font-size="10" font-weight="normal" text-anchor="start" fill="#000000">"The site is located in wherever (13.3oN; 143.23oW) because it is."</text><circle transform="translate(36.709829840284144 75.37411480098609) scale(1)" cx="451.0386662878972" cy="26.711722701360898" r="11" fill="#68bc00" stroke="#000000" strokewidth="2"></circle><rect transform="translate(36.709829840284144 75.37411480098609) scale(1) translate(451.0386662878972 26.711722701360898) translate(7.347880794884119e-16 -44) translate(0 0) translate(-25.22412109375 0)" x="0" y="0" width="48.4482421875" height="14" rx="7" ry="7" fill="#ffffff" stroke="#000000"></rect><text xml:space="preserve" transform="translate(36.709829840284144 75.37411480098609) scale(1) translate(451.0386662878972 26.711722701360898) translate(7.347880794884119e-16 -44) translate(0 0) translate(-25.22412109375 0)" x="7" y="10" font-family="sans-serif" font-size="10" font-weight="normal" text-anchor="undefined" fill="#000000">AGENT</text><rect transform="translate(36.709829840284144 75.37411480098609) scale(1) translate(451.0386662878972 26.711722701360898) translate(7.347880794884119e-16 -44) translate(0 20) translate(-92.54638671875 0)" x="0" y="0" width="185.0927734375" height="12" rx="0" ry="0" fill="white" stroke="none"></rect><text xml:space="preserve" transform="translate(36.709829840284144 75.37411480098609) scale(1) translate(451.0386662878972 26.711722701360898) translate(7.347880794884119e-16 -44) translate(0 20) translate(-92.54638671875 0)" x="13.33984375" y="9" font-family="sans-serif" font-size="10" font-weight="normal" text-anchor="end" fill="#000000">id:</text><text xml:space="preserve" transform="translate(36.709829840284144 75.37411480098609) scale(1) translate(451.0386662878972 26.711722701360898) translate(7.347880794884119e-16 -44) translate(0 20) translate(-92.54638671875 0)" x="16.1181640625" y="9" font-family="sans-serif" font-size="10" font-weight="normal" text-anchor="start" fill="#000000">Throughput DeepDive Text Extraction</text><circle transform="translate(36.709829840284144 75.37411480098609) scale(1)" cx="552.2429555315296" cy="93.75182164000387" r="11" fill="#a4dd00" stroke="#000000" strokewidth="2"></circle><rect transform="translate(36.709829840284144 75.37411480098609) scale(1) translate(552.2429555315296 93.75182164000387) translate(8.485281374238571 8.48528137423857) translate(0 0) translate(0 0)" x="0" y="0" width="74.56640625" height="14" rx="7" ry="7" fill="#ffffff" stroke="#000000"></rect><text xml:space="preserve" transform="translate(36.709829840284144 75.37411480098609) scale(1) translate(552.2429555315296 93.75182164000387) translate(8.485281374238571 8.48528137423857) translate(0 0) translate(0 0)" x="7" y="10" font-family="sans-serif" font-size="10" font-weight="normal" text-anchor="undefined" fill="#000000">AGENTTYPE</text><rect transform="translate(36.709829840284144 75.37411480098609) scale(1) translate(552.2429555315296 93.75182164000387) translate(8.485281374238571 8.48528137423857) translate(0 20) translate(0 0)" x="0" y="0" width="97.2802734375" height="12" rx="0" ry="0" fill="white" stroke="none"></rect><text xml:space="preserve" transform="translate(36.709829840284144 75.37411480098609) scale(1) translate(552.2429555315296 93.75182164000387) translate(8.485281374238571 8.48528137423857) translate(0 20) translate(0 0)" x="52.2607421875" y="9" font-family="sans-serif" font-size="10" font-weight="normal" text-anchor="end" fill="#000000">agentType:</text><text xml:space="preserve" transform="translate(36.709829840284144 75.37411480098609) scale(1) translate(552.2429555315296 93.75182164000387) translate(8.485281374238571 8.48528137423857) translate(0 20) translate(0 0)" x="55.0390625" y="9" font-family="sans-serif" font-size="10" font-weight="normal" text-anchor="start" fill="#000000">Software</text><circle transform="translate(36.709829840284144 75.37411480098609) scale(1)" cx="269.61767016873443" cy="156.12798760811705" r="11" fill="#7b64ff" stroke="#000000" strokewidth="2"></circle><rect transform="translate(36.709829840284144 75.37411480098609) scale(1) translate(269.61767016873443 156.12798760811705) translate(-12 -15.999999999999998) translate(0 0) translate(-42.1181640625 0)" x="0" y="0" width="40.1181640625" height="14" rx="7" ry="7" fill="#ffffff" stroke="#000000"></rect><text xml:space="preserve" transform="translate(36.709829840284144 75.37411480098609) scale(1) translate(269.61767016873443 156.12798760811705) translate(-12 -15.999999999999998) translate(0 0) translate(-42.1181640625 0)" x="7" y="10" font-family="sans-serif" font-size="10" font-weight="normal" text-anchor="undefined" fill="#000000">TYPE</text><rect transform="translate(36.709829840284144 75.37411480098609) scale(1) translate(269.61767016873443 156.12798760811705) translate(-12 -15.999999999999998) translate(0 20) translate(-84.4921875 0)" x="0" y="0" width="84.4921875" height="12" rx="0" ry="0" fill="white" stroke="none"></rect><text xml:space="preserve" transform="translate(36.709829840284144 75.37411480098609) scale(1) translate(269.61767016873443 156.12798760811705) translate(-12 -15.999999999999998) translate(0 20) translate(-84.4921875 0)" x="24.4580078125" y="9" font-family="sans-serif" font-size="10" font-weight="normal" text-anchor="end" fill="#000000">type:</text><text xml:space="preserve" transform="translate(36.709829840284144 75.37411480098609) scale(1) translate(269.61767016873443 156.12798760811705) translate(-12 -15.999999999999998) translate(0 20) translate(-84.4921875 0)" x="27.236328125" y="9" font-family="sans-serif" font-size="10" font-weight="normal" text-anchor="start" fill="#000000">TextualBody</text></svg>