<svg xmlns="http://www.w3.org/2000/svg" xmlns:xlink="http://www.w3.org/1999/xlink" width="537" height="308" viewbox="0 0 537 308"><path transform="translate(162.40560859067938 210.40060279150998) translate(38.681334003803386 -59.344440045074535) rotate(-138.08111861490397)" d="M 7 0 L 92.36158836575233 0" fill="none" stroke="#A5ABB6" stroke-width="1"></path><polygon transform="translate(162.40560859067938 210.40060279150998) translate(38.681334003803386 -59.344440045074535) rotate(-138.08111861490397) translate(101.81158836575233 0) rotate(0)" points="-9.45,0 -10.5,3.5 0,0 -10.5,-3.5" fill="undefined" stroke="none" stroke-width="1"></polygon><rect transform="translate(162.40560859067938 210.40060279150998) translate(1.7142809797599767 -92.53507579311143) rotate(41.918881385096036) translate(0 -7) translate(-29.5146484375 0)" x="0" y="0" width="59.029296875" height="14" rx="2" ry="2" fill="#ffffff" stroke="none"></rect><text xml:space="preserve" transform="translate(162.40560859067938 210.40060279150998) translate(1.7142809797599767 -92.53507579311143) rotate(41.918881385096036) translate(0 -7) translate(-29.5146484375 0)" x="2" y="10" font-family="sans-serif" font-size="10" font-weight="normal" text-anchor="left" fill="#000000">hasKeyword</text><path transform="translate(162.40560859067938 210.40060279150998) translate(38.681334003803386 -59.344440045074535) rotate(-45.58227592293383)" d="M 7 0 L 84.0336046852833 0" fill="none" stroke="#A5ABB6" stroke-width="1"></path><polygon transform="translate(162.40560859067938 210.40060279150998) translate(38.681334003803386 -59.344440045074535) rotate(-45.58227592293383) translate(93.4836046852833 0) rotate(0)" points="-9.45,0 -10.5,3.5 0,0 -10.5,-3.5" fill="undefined" stroke="none" stroke-width="1"></polygon><rect transform="translate(162.40560859067938 210.40060279150998) translate(70.53783046541272 -91.85509873865655) rotate(-45.58227592293383) translate(0 -7) translate(-15.896484375 0)" x="0" y="0" width="31.79296875" height="14" rx="2" ry="2" fill="#ffffff" stroke="none"></rect><text xml:space="preserve" transform="translate(162.40560859067938 210.40060279150998) translate(70.53783046541272 -91.85509873865655) rotate(-45.58227592293383) translate(0 -7) translate(-15.896484375 0)" x="2" y="10" font-family="sans-serif" font-size="10" font-weight="normal" text-anchor="left" fill="#000000">Target</text><path transform="translate(162.40560859067938 210.40060279150998) translate(123.00592028395442 -145.40060279150998) rotate(45.58227592293383)" d="M 27 0 L 84.0336046852833 0" fill="none" stroke="#A5ABB6" stroke-width="1"></path><polygon transform="translate(162.40560859067938 210.40060279150998) translate(123.00592028395442 -145.40060279150998) rotate(45.58227592293383) translate(93.4836046852833 0) rotate(0)" points="-9.45,0 -10.5,3.5 0,0 -10.5,-3.5" fill="undefined" stroke="none" stroke-width="1"></polygon><rect transform="translate(162.40560859067938 210.40060279150998) translate(161.86125999070208 -105.74738200649455) rotate(45.58227592293383) translate(0 -7) translate(-16.45068359375 0)" x="0" y="0" width="32.9013671875" height="14" rx="2" ry="2" fill="#ffffff" stroke="none"></rect><text xml:space="preserve" transform="translate(162.40560859067938 210.40060279150998) translate(161.86125999070208 -105.74738200649455) rotate(45.58227592293383) translate(0 -7) translate(-16.45068359375 0)" x="2" y="10" font-family="sans-serif" font-size="10" font-weight="normal" text-anchor="left" fill="#000000">isType</text><path transform="translate(162.40560859067938 210.40060279150998) translate(38.681334003803386 -59.344440045074535) rotate(45.582275922933825)" d="M 7 0 L 84.0336046852833 0" fill="none" stroke="#A5ABB6" stroke-width="1"></path><polygon transform="translate(162.40560859067938 210.40060279150998) translate(38.681334003803386 -59.344440045074535) rotate(45.582275922933825) translate(93.4836046852833 0) rotate(0)" points="-9.45,0 -10.5,3.5 0,0 -10.5,-3.5" fill="undefined" stroke="none" stroke-width="1"></polygon><rect transform="translate(162.40560859067938 210.40060279150998) translate(70.53783046541272 -26.833781351492526) rotate(45.582275922933825) translate(0 -7) translate(-13.396484375 0)" x="0" y="0" width="26.79296875" height="14" rx="2" ry="2" fill="#ffffff" stroke="none"></rect><text xml:space="preserve" transform="translate(162.40560859067938 210.40060279150998) translate(70.53783046541272 -26.833781351492526) rotate(45.582275922933825) translate(0 -7) translate(-13.396484375 0)" x="2" y="10" font-family="sans-serif" font-size="10" font-weight="normal" text-anchor="left" fill="#000000">Body</text><path transform="translate(162.40560859067938 210.40060279150998) translate(123.00592028395442 26.711722701360898) rotate(158.96677533079279)" d="M 27 0 L 84.03360468528331 0" fill="none" stroke="#A5ABB6" stroke-width="1"></path><polygon transform="translate(162.40560859067938 210.40060279150998) translate(123.00592028395442 26.711722701360898) rotate(158.96677533079279) translate(93.48360468528331 0) rotate(0)" points="-9.45,0 -10.5,3.5 0,0 -10.5,-3.5" fill="undefined" stroke="none" stroke-width="1"></polygon><rect transform="translate(162.40560859067938 210.40060279150998) translate(71.18806595528915 46.637216801261346) rotate(338.96677533079276) translate(0 -7) translate(-16.45068359375 0)" x="0" y="0" width="32.9013671875" height="14" rx="2" ry="2" fill="#ffffff" stroke="none"></rect><text xml:space="preserve" transform="translate(162.40560859067938 210.40060279150998) translate(71.18806595528915 46.637216801261346) rotate(338.96677533079276) translate(0 -7) translate(-16.45068359375 0)" x="2" y="10" font-family="sans-serif" font-size="10" font-weight="normal" text-anchor="left" fill="#000000">isType</text><circle transform="translate(162.40560859067938 210.40060279150998)" cx="-57.16626456114261" cy="-145.40060279150998" r="26" fill="#f44e3b" stroke="#2870c2" strokewidth="2"></circle><rect transform="translate(162.40560859067938 210.40060279150998) translate(-57.16626456114261 -145.40060279150998) translate(-19.09188309203678 -45.09188309203678) translate(-65.669921875 0)" x="0" y="0" width="65.669921875" height="14" rx="7" ry="7" fill="#4C8EDA" stroke="none"></rect><text xml:space="preserve" transform="translate(162.40560859067938 210.40060279150998) translate(-57.16626456114261 -145.40060279150998) translate(-19.09188309203678 -45.09188309203678) translate(-65.669921875 0)" x="7" y="10" font-family="sans-serif" font-size="10" font-weight="normal" text-anchor="undefined" fill="#ffffff">KEYWORD</text><rect transform="translate(162.40560859067938 210.40060279150998) translate(-57.16626456114261 -145.40060279150998) translate(-19.09188309203678 -45.09188309203678) translate(-86.1474609375 14)" x="0" y="0" width="86.1474609375" height="12" rx="0" ry="0" fill="white" stroke="none"></rect><text xml:space="preserve" transform="translate(162.40560859067938 210.40060279150998) translate(-57.16626456114261 -145.40060279150998) translate(-19.09188309203678 -45.09188309203678) translate(-86.1474609375 14)" x="42.79296875" y="9" font-family="sans-serif" font-size="10" font-weight="normal" text-anchor="end" fill="#000000">keyword:</text><text xml:space="preserve" transform="translate(162.40560859067938 210.40060279150998) translate(-57.16626456114261 -145.40060279150998) translate(-19.09188309203678 -45.09188309203678) translate(-86.1474609375 14)" x="45.5712890625" y="9" font-family="sans-serif" font-size="10" font-weight="normal" text-anchor="start" fill="#000000">pumpkin</text><circle transform="translate(162.40560859067938 210.40060279150998)" cx="38.681334003803386" cy="-59.344440045074535" r="6" fill="#9f0500" stroke="#2870c2" strokewidth="2"></circle><rect transform="translate(162.40560859067938 210.40060279150998) translate(38.681334003803386 -59.344440045074535) translate(-4.949747468305832 4.949747468305833) translate(-78.072265625 0)" x="0" y="0" width="78.072265625" height="14" rx="7" ry="7" fill="#4C8EDA" stroke="none"></rect><text xml:space="preserve" transform="translate(162.40560859067938 210.40060279150998) translate(38.681334003803386 -59.344440045074535) translate(-4.949747468305832 4.949747468305833) translate(-78.072265625 0)" x="7" y="10" font-family="sans-serif" font-size="10" font-weight="normal" text-anchor="undefined" fill="#ffffff">ANNOTATION</text><circle transform="translate(162.40560859067938 210.40060279150998)" cx="123.00592028395442" cy="-145.40060279150998" r="26" fill="#e27300" stroke="#2870c2" strokewidth="2"></circle><rect transform="translate(162.40560859067938 210.40060279150998) translate(123.00592028395442 -145.40060279150998) translate(1.6532731788489269e-15 -65) translate(-26.72412109375 0)" x="0" y="0" width="53.4482421875" height="14" rx="7" ry="7" fill="#4C8EDA" stroke="none"></rect><text xml:space="preserve" transform="translate(162.40560859067938 210.40060279150998) translate(123.00592028395442 -145.40060279150998) translate(1.6532731788489269e-15 -65) translate(-26.72412109375 0)" x="7" y="10" font-family="sans-serif" font-size="10" font-weight="normal" text-anchor="undefined" fill="#ffffff">OBJECT</text><rect transform="translate(162.40560859067938 210.40060279150998) translate(123.00592028395442 -145.40060279150998) translate(1.6532731788489269e-15 -65) translate(-93.9306640625 14)" x="0" y="0" width="187.861328125" height="24" rx="0" ry="0" fill="white" stroke="none"></rect><text xml:space="preserve" transform="translate(162.40560859067938 210.40060279150998) translate(123.00592028395442 -145.40060279150998) translate(1.6532731788489269e-15 -65) translate(-93.9306640625 14)" x="30.5712890625" y="9" font-family="sans-serif" font-size="10" font-weight="normal" text-anchor="end" fill="#000000">name:</text><text xml:space="preserve" transform="translate(162.40560859067938 210.40060279150998) translate(123.00592028395442 -145.40060279150998) translate(1.6532731788489269e-15 -65) translate(-93.9306640625 14)" x="33.349609375" y="9" font-family="sans-serif" font-size="10" font-weight="normal" text-anchor="start" fill="#000000">sckott/wdclients</text><text xml:space="preserve" transform="translate(162.40560859067938 210.40060279150998) translate(123.00592028395442 -145.40060279150998) translate(1.6532731788489269e-15 -65) translate(-93.9306640625 14)" x="30.5712890625" y="21" font-family="sans-serif" font-size="10" font-weight="normal" text-anchor="end" fill="#000000">url:</text><text xml:space="preserve" transform="translate(162.40560859067938 210.40060279150998) translate(123.00592028395442 -145.40060279150998) translate(1.6532731788489269e-15 -65) translate(-93.9306640625 14)" x="33.349609375" y="21" font-family="sans-serif" font-size="10" font-weight="normal" text-anchor="start" fill="#000000">https://github.com/sckott/wdclients</text><circle transform="translate(162.40560859067938 210.40060279150998)" cx="207.33050656410546" cy="-59.344440045074535" r="26" fill="#7b64ff" stroke="#2870c2" strokewidth="2"></circle><rect transform="translate(162.40560859067938 210.40060279150998) translate(207.33050656410546 -59.344440045074535) translate(19.091883092036785 19.09188309203678) translate(0 0)" x="0" y="0" width="40.1181640625" height="14" rx="7" ry="7" fill="#4C8EDA" stroke="none"></rect><text xml:space="preserve" transform="translate(162.40560859067938 210.40060279150998) translate(207.33050656410546 -59.344440045074535) translate(19.091883092036785 19.09188309203678) translate(0 0)" x="7" y="10" font-family="sans-serif" font-size="10" font-weight="normal" text-anchor="undefined" fill="#ffffff">TYPE</text><rect transform="translate(162.40560859067938 210.40060279150998) translate(207.33050656410546 -59.344440045074535) translate(19.091883092036785 19.09188309203678) translate(0 14)" x="0" y="0" width="139.51171875" height="12" rx="0" ry="0" fill="white" stroke="none"></rect><text xml:space="preserve" transform="translate(162.40560859067938 210.40060279150998) translate(207.33050656410546 -59.344440045074535) translate(19.091883092036785 19.09188309203678) translate(0 14)" x="24.4580078125" y="9" font-family="sans-serif" font-size="10" font-weight="normal" text-anchor="end" fill="#000000">type:</text><text xml:space="preserve" transform="translate(162.40560859067938 210.40060279150998) translate(207.33050656410546 -59.344440045074535) translate(19.091883092036785 19.09188309203678) translate(0 14)" x="27.236328125" y="9" font-family="sans-serif" font-size="10" font-weight="normal" text-anchor="start" fill="#000000">schema:CodeRepository</text><circle transform="translate(162.40560859067938 210.40060279150998)" cx="10.549841887321165" cy="69.95440334918726" r="26" fill="#7b64ff" stroke="#2870c2" strokewidth="2"></circle><rect transform="translate(162.40560859067938 210.40060279150998) translate(10.549841887321165 69.95440334918726) translate(-27 -12.999999999999996) translate(-40.1181640625 0)" x="0" y="0" width="40.1181640625" height="14" rx="7" ry="7" fill="#4C8EDA" stroke="none"></rect><text xml:space="preserve" transform="translate(162.40560859067938 210.40060279150998) translate(10.549841887321165 69.95440334918726) translate(-27 -12.999999999999996) translate(-40.1181640625 0)" x="7" y="10" font-family="sans-serif" font-size="10" font-weight="normal" text-anchor="undefined" fill="#ffffff">TYPE</text><rect transform="translate(162.40560859067938 210.40060279150998) translate(10.549841887321165 69.95440334918726) translate(-27 -12.999999999999996) translate(-84.4921875 14)" x="0" y="0" width="84.4921875" height="12" rx="0" ry="0" fill="white" stroke="none"></rect><text xml:space="preserve" transform="translate(162.40560859067938 210.40060279150998) translate(10.549841887321165 69.95440334918726) translate(-27 -12.999999999999996) translate(-84.4921875 14)" x="24.4580078125" y="9" font-family="sans-serif" font-size="10" font-weight="normal" text-anchor="end" fill="#000000">type:</text><text xml:space="preserve" transform="translate(162.40560859067938 210.40060279150998) translate(10.549841887321165 69.95440334918726) translate(-27 -12.999999999999996) translate(-84.4921875 14)" x="27.236328125" y="9" font-family="sans-serif" font-size="10" font-weight="normal" text-anchor="start" fill="#000000">TextualBody</text><circle transform="translate(162.40560859067938 210.40060279150998)" cx="123.00592028395442" cy="26.711722701360898" r="26" fill="#e27300" stroke="#2870c2" strokewidth="2"></circle><rect transform="translate(162.40560859067938 210.40060279150998) translate(123.00592028395442 26.711722701360898) translate(27 -13) translate(0 0)" x="0" y="0" width="53.4482421875" height="14" rx="7" ry="7" fill="#4C8EDA" stroke="none"></rect><text xml:space="preserve" transform="translate(162.40560859067938 210.40060279150998) translate(123.00592028395442 26.711722701360898) translate(27 -13) translate(0 0)" x="7" y="10" font-family="sans-serif" font-size="10" font-weight="normal" text-anchor="undefined" fill="#ffffff">OBJECT</text><rect transform="translate(162.40560859067938 210.40060279150998) translate(123.00592028395442 26.711722701360898) translate(27 -13) translate(0 14)" x="0" y="0" width="224.013671875" height="12" rx="0" ry="0" fill="white" stroke="none"></rect><text xml:space="preserve" transform="translate(162.40560859067938 210.40060279150998) translate(123.00592028395442 26.711722701360898) translate(27 -13) translate(0 14)" x="29.462890625" y="9" font-family="sans-serif" font-size="10" font-weight="normal" text-anchor="end" fill="#000000">value:</text><text xml:space="preserve" transform="translate(162.40560859067938 210.40060279150998) translate(123.00592028395442 26.711722701360898) translate(27 -13) translate(0 14)" x="32.2412109375" y="9" font-family="sans-serif" font-size="10" font-weight="normal" text-anchor="start" fill="#000000">Keyword assigned by Github web scraping</text></svg>