<svg xmlns="http://www.w3.org/2000/svg" xmlns:xlink="http://www.w3.org/1999/xlink" width="447" height="293" viewbox="0 0 447 293"><path transform="translate(72.47217120598467 91.29418751338036) translate(10.549841887321165 -72.34444004507453) rotate(41.37499031464542)" d="M 7 0 L 113.41157928701416 0" fill="none" stroke="#A5ABB6" stroke-width="1"></path><polygon transform="translate(72.47217120598467 91.29418751338036) translate(10.549841887321165 -72.34444004507453) rotate(41.37499031464542) translate(122.86157928701417 0) rotate(0)" points="-9.45,0 -10.5,3.5 0,0 -10.5,-3.5" fill="undefined" stroke="none" stroke-width="1"></polygon><rect transform="translate(72.47217120598467 91.29418751338036) translate(55.72824606731851 -32.549353635480905) rotate(41.37499031464542) translate(0 -7) translate(-28.591796875 0)" x="0" y="0" width="57.18359375" height="14" rx="2" ry="2" fill="#ffffff" stroke="none"></rect><text xml:space="preserve" transform="translate(72.47217120598467 91.29418751338036) translate(55.72824606731851 -32.549353635480905) rotate(41.37499031464542) translate(0 -7) translate(-28.591796875 0)" x="2" y="10" font-family="sans-serif" font-size="10" font-weight="normal" text-anchor="left" fill="#000000">Body|Target</text><path transform="translate(72.47217120598467 91.29418751338036) translate(123.00592028395442 26.711722701360898) rotate(120.2799549605004)" d="M 27 0 L 113.41157928701419 0" fill="none" stroke="#A5ABB6" stroke-width="1"></path><polygon transform="translate(72.47217120598467 91.29418751338036) translate(123.00592028395442 26.711722701360898) rotate(120.2799549605004) translate(122.8615792870142 0) rotate(0)" points="-9.45,0 -10.5,3.5 0,0 -10.5,-3.5" fill="undefined" stroke="none" stroke-width="1"></polygon><rect transform="translate(72.47217120598467 91.29418751338036) translate(87.60636862771943 87.33947741820589) rotate(300.2799549605004) translate(0 -7) translate(-16.45068359375 0)" x="0" y="0" width="32.9013671875" height="14" rx="2" ry="2" fill="#ffffff" stroke="none"></rect><text xml:space="preserve" transform="translate(72.47217120598467 91.29418751338036) translate(87.60636862771943 87.33947741820589) rotate(300.2799549605004) translate(0 -7) translate(-16.45068359375 0)" x="2" y="10" font-family="sans-serif" font-size="10" font-weight="normal" text-anchor="left" fill="#000000">isType</text><circle transform="translate(72.47217120598467 91.29418751338036)" cx="10.549841887321165" cy="-72.34444004507453" r="6" fill="#9f0500" stroke="#2870c2" strokewidth="2"></circle><rect transform="translate(72.47217120598467 91.29418751338036) translate(10.549841887321165 -72.34444004507453) translate(-4.949747468305832 -18.949747468305834) translate(-78.072265625 0)" x="0" y="0" width="78.072265625" height="14" rx="7" ry="7" fill="#4C8EDA" stroke="none"></rect><text xml:space="preserve" transform="translate(72.47217120598467 91.29418751338036) translate(10.549841887321165 -72.34444004507453) translate(-4.949747468305832 -18.949747468305834) translate(-78.072265625 0)" x="7" y="10" font-family="sans-serif" font-size="10" font-weight="normal" text-anchor="undefined" fill="#ffffff">ANNOTATION</text><circle transform="translate(72.47217120598467 91.29418751338036)" cx="47.44188569088658" cy="156.12798760811705" r="26" fill="#7b64ff" stroke="#2870c2" strokewidth="2"></circle><rect transform="translate(72.47217120598467 91.29418751338036) translate(47.44188569088658 156.12798760811705) translate(-19.09188309203678 19.091883092036785) translate(-40.1181640625 0)" x="0" y="0" width="40.1181640625" height="14" rx="7" ry="7" fill="#4C8EDA" stroke="none"></rect><text xml:space="preserve" transform="translate(72.47217120598467 91.29418751338036) translate(47.44188569088658 156.12798760811705) translate(-19.09188309203678 19.091883092036785) translate(-40.1181640625 0)" x="7" y="10" font-family="sans-serif" font-size="10" font-weight="normal" text-anchor="undefined" fill="#ffffff">TYPE</text><rect transform="translate(72.47217120598467 91.29418751338036) translate(47.44188569088658 156.12798760811705) translate(-19.09188309203678 19.091883092036785) translate(-84.4921875 14)" x="0" y="0" width="84.4921875" height="12" rx="0" ry="0" fill="white" stroke="none"></rect><text xml:space="preserve" transform="translate(72.47217120598467 91.29418751338036) translate(47.44188569088658 156.12798760811705) translate(-19.09188309203678 19.091883092036785) translate(-84.4921875 14)" x="24.4580078125" y="9" font-family="sans-serif" font-size="10" font-weight="normal" text-anchor="end" fill="#000000">type:</text><text xml:space="preserve" transform="translate(72.47217120598467 91.29418751338036) translate(47.44188569088658 156.12798760811705) translate(-19.09188309203678 19.091883092036785) translate(-84.4921875 14)" x="27.236328125" y="9" font-family="sans-serif" font-size="10" font-weight="normal" text-anchor="start" fill="#000000">TextualBody</text><circle transform="translate(72.47217120598467 91.29418751338036)" cx="123.00592028395442" cy="26.711722701360898" r="26" fill="#e27300" stroke="#2870c2" strokewidth="2"></circle><rect transform="translate(72.47217120598467 91.29418751338036) translate(123.00592028395442 26.711722701360898) translate(27 -13) translate(0 0)" x="0" y="0" width="53.4482421875" height="14" rx="7" ry="7" fill="#4C8EDA" stroke="none"></rect><text xml:space="preserve" transform="translate(72.47217120598467 91.29418751338036) translate(123.00592028395442 26.711722701360898) translate(27 -13) translate(0 0)" x="7" y="10" font-family="sans-serif" font-size="10" font-weight="normal" text-anchor="undefined" fill="#ffffff">OBJECT</text><rect transform="translate(72.47217120598467 91.29418751338036) translate(123.00592028395442 26.711722701360898) translate(27 -13) translate(0 14)" x="0" y="0" width="224.013671875" height="12" rx="0" ry="0" fill="white" stroke="none"></rect><text xml:space="preserve" transform="translate(72.47217120598467 91.29418751338036) translate(123.00592028395442 26.711722701360898) translate(27 -13) translate(0 14)" x="29.462890625" y="9" font-family="sans-serif" font-size="10" font-weight="normal" text-anchor="end" fill="#000000">value:</text><text xml:space="preserve" transform="translate(72.47217120598467 91.29418751338036) translate(123.00592028395442 26.711722701360898) translate(27 -13) translate(0 14)" x="32.2412109375" y="9" font-family="sans-serif" font-size="10" font-weight="normal" text-anchor="start" fill="#000000">Keyword assigned by Github web scraping</text></svg>