<svg xmlns="http://www.w3.org/2000/svg" xmlns:xlink="http://www.w3.org/1999/xlink" width="794" height="434" viewbox="0 0 794 434"><path transform="translate(246.7455777016192 190.96916142224586) translate(18.938032399820813 -81.12318657079197) rotate(46.01844665406175)" d="M 7 0 L 137.8615792870142 0" fill="none" stroke="#000000" stroke-width="2"></path><rect transform="translate(246.7455777016192 190.96916142224586) translate(69.2359094930787 -29.004640463926144) rotate(46.01844665406175) translate(0 -10) translate(-31.591796875 0)" x="0" y="0" width="63.18359375" height="20" rx="5" ry="5" fill="#ffffff" stroke="none"></rect><text xml:space="preserve" transform="translate(246.7455777016192 190.96916142224586) translate(69.2359094930787 -29.004640463926144) rotate(46.01844665406175) translate(0 -10) translate(-31.591796875 0)" x="5" y="13" font-family="sans-serif" font-size="10" font-weight="normal" text-anchor="left" fill="#000000">Body|Target</text><path transform="translate(246.7455777016192 190.96916142224586) translate(123.00592028395442 26.711722701360898) rotate(120.2799549605004)" d="M 12 0 L 137.8615792870142 0" fill="none" stroke="#000000" stroke-width="2"></path><rect transform="translate(246.7455777016192 190.96916142224586) translate(85.2239029874205 91.41985515473898) rotate(300.2799549605004) translate(0 -10) translate(-19.45068359375 0)" x="0" y="0" width="38.9013671875" height="20" rx="5" ry="5" fill="#ffffff" stroke="none"></rect><text xml:space="preserve" transform="translate(246.7455777016192 190.96916142224586) translate(85.2239029874205 91.41985515473898) rotate(300.2799549605004) translate(0 -10) translate(-19.45068359375 0)" x="5" y="13" font-family="sans-serif" font-size="10" font-weight="normal" text-anchor="left" fill="#000000">isType</text><path transform="translate(246.7455777016192 190.96916142224586) translate(18.938032399820813 -81.12318657079197) rotate(-28.871719099781934)" d="M 7 0 L 137.86157928701417 0" fill="none" stroke="#000000" stroke-width="2"></path><rect transform="translate(246.7455777016192 190.96916142224586) translate(82.36588972225098 -116.0964078102977) rotate(-28.871719099781934) translate(0 -10) translate(-32.5146484375 0)" x="0" y="0" width="65.029296875" height="20" rx="5" ry="5" fill="#ffffff" stroke="none"></rect><text xml:space="preserve" transform="translate(246.7455777016192 190.96916142224586) translate(82.36588972225098 -116.0964078102977) rotate(-28.871719099781934) translate(0 -10) translate(-32.5146484375 0)" x="5" y="13" font-family="sans-serif" font-size="10" font-weight="normal" text-anchor="left" fill="#000000">hasKeyword</text><path transform="translate(246.7455777016192 190.96916142224586) translate(18.938032399820813 -81.12318657079197) rotate(133.98155334593827)" d="M 7 0 L 137.8615792870142 0" fill="none" stroke="#000000" stroke-width="2"></path><rect transform="translate(246.7455777016192 190.96916142224586) translate(-31.359844693437076 -29.00464046392615) rotate(313.98155334593827) translate(0 -10) translate(-47.71484375 0)" x="0" y="0" width="95.4296875" height="20" rx="5" ry="5" fill="#ffffff" stroke="none"></rect><text xml:space="preserve" transform="translate(246.7455777016192 190.96916142224586) translate(-31.359844693437076 -29.00464046392615) rotate(313.98155334593827) translate(0 -10) translate(-47.71484375 0)" x="5" y="13" font-family="sans-serif" font-size="10" font-weight="normal" text-anchor="left" fill="#000000">Created|Generated</text><path transform="translate(246.7455777016192 190.96916142224586) translate(-85.12985548431278 26.711722701360898) rotate(120.2799549605004)" d="M 12 0 L 137.8615792870142 0" fill="none" stroke="#000000" stroke-width="2"></path><rect transform="translate(246.7455777016192 190.96916142224586) translate(-122.91187278084669 91.41985515473898) rotate(300.2799549605004) translate(0 -10) translate(-32.51708984375 0)" x="0" y="0" width="65.0341796875" height="20" rx="5" ry="5" fill="#ffffff" stroke="none"></rect><text xml:space="preserve" transform="translate(246.7455777016192 190.96916142224586) translate(-122.91187278084669 91.41985515473898) rotate(300.2799549605004) translate(0 -10) translate(-32.51708984375 0)" x="5" y="13" font-family="sans-serif" font-size="10" font-weight="normal" text-anchor="left" fill="#000000">isAgentType</text><path transform="translate(246.7455777016192 190.96916142224586) translate(248.56995487702227 206.12798760811705) rotate(0)" d="M 12 0 L 150.90317535458757 0" fill="none" stroke="#000000" stroke-width="2"></path><rect transform="translate(246.7455777016192 190.96916142224586) translate(330.02154255431606 206.12798760811705) rotate(0) translate(0 -10) translate(-19.45068359375 0)" x="0" y="0" width="38.9013671875" height="20" rx="5" ry="5" fill="#ffffff" stroke="none"></rect><text xml:space="preserve" transform="translate(246.7455777016192 190.96916142224586) translate(330.02154255431606 206.12798760811705) rotate(0) translate(0 -10) translate(-19.45068359375 0)" x="5" y="13" font-family="sans-serif" font-size="10" font-weight="normal" text-anchor="left" fill="#000000">isType</text><path transform="translate(246.7455777016192 190.96916142224586) translate(269.61767016873443 57.75182164000386) rotate(98.07375398542517)" d="M 7 0 L 137.8615792870142 0" fill="none" stroke="#000000" stroke-width="2"></path><rect transform="translate(246.7455777016192 190.96916142224586) translate(259.44493179227095 129.46468437958498) rotate(278.0737539854252) translate(0 -10) translate(-31.591796875 0)" x="0" y="0" width="63.18359375" height="20" rx="5" ry="5" fill="#ffffff" stroke="none"></rect><text xml:space="preserve" transform="translate(246.7455777016192 190.96916142224586) translate(259.44493179227095 129.46468437958498) rotate(278.0737539854252) translate(0 -10) translate(-31.591796875 0)" x="5" y="13" font-family="sans-serif" font-size="10" font-weight="normal" text-anchor="left" fill="#000000">Body|Target</text><path transform="translate(246.7455777016192 190.96916142224586) translate(269.61767016873443 57.75182164000386) rotate(-168.04606955815896)" d="M 7 0 L 137.86157928701417 0" fill="none" stroke="#000000" stroke-width="2"></path><rect transform="translate(246.7455777016192 190.96916142224586) translate(198.75758137417338 42.74958499312692) rotate(11.953930441841042) translate(0 -10) translate(-31.591796875 0)" x="0" y="0" width="63.18359375" height="20" rx="5" ry="5" fill="#ffffff" stroke="none"></rect><text xml:space="preserve" transform="translate(246.7455777016192 190.96916142224586) translate(198.75758137417338 42.74958499312692) rotate(11.953930441841042) translate(0 -10) translate(-31.591796875 0)" x="5" y="13" font-family="sans-serif" font-size="10" font-weight="normal" text-anchor="left" fill="#000000">Body|Target</text><path transform="translate(246.7455777016192 190.96916142224586) translate(269.61767016873443 57.75182164000386) rotate(-12.342640013676522)" d="M 7 0 L 133.21177394333694 0" fill="none" stroke="#000000" stroke-width="2"></path><rect transform="translate(246.7455777016192 190.96916142224586) translate(338.10318328809467 42.76616580309464) rotate(-12.342640013676522) translate(0 -10) translate(-47.71484375 0)" x="0" y="0" width="95.4296875" height="20" rx="5" ry="5" fill="#ffffff" stroke="none"></rect><text xml:space="preserve" transform="translate(246.7455777016192 190.96916142224586) translate(338.10318328809467 42.76616580309464) rotate(-12.342640013676522) translate(0 -10) translate(-47.71484375 0)" x="5" y="13" font-family="sans-serif" font-size="10" font-weight="normal" text-anchor="left" fill="#000000">Created|Generated</text><path transform="translate(246.7455777016192 190.96916142224586) translate(411.47313023160984 26.711722701360898) rotate(-90)" d="M 12 0 L 133.21177394333694 0" fill="none" stroke="#000000" stroke-width="2"></path><rect transform="translate(246.7455777016192 190.96916142224586) translate(411.47313023160984 -45.89416427030757) rotate(90) translate(0 -10) translate(-32.51708984375 0)" x="0" y="0" width="65.0341796875" height="20" rx="5" ry="5" fill="#ffffff" stroke="none"></rect><text xml:space="preserve" transform="translate(246.7455777016192 190.96916142224586) translate(411.47313023160984 -45.89416427030757) rotate(90) translate(0 -10) translate(-32.51708984375 0)" x="5" y="13" font-family="sans-serif" font-size="10" font-weight="normal" text-anchor="left" fill="#000000">isAgentType</text><circle transform="translate(246.7455777016192 190.96916142224586)" cx="18.938032399820813" cy="-81.12318657079197" r="6" fill="#9f0500" stroke="#000000" strokewidth="2"></circle><rect transform="translate(246.7455777016192 190.96916142224586) translate(18.938032399820813 -81.12318657079197) translate(-4.949747468305832 -20.949747468305834) translate(-80.072265625 0)" x="0" y="0" width="78.072265625" height="14" rx="7" ry="7" fill="#ffffff" stroke="#000000"></rect><text xml:space="preserve" transform="translate(246.7455777016192 190.96916142224586) translate(18.938032399820813 -81.12318657079197) translate(-4.949747468305832 -20.949747468305834) translate(-80.072265625 0)" x="7" y="10" font-family="sans-serif" font-size="10" font-weight="normal" text-anchor="undefined" fill="#000000">ANNOTATION</text><circle transform="translate(246.7455777016192 190.96916142224586)" cx="47.44188569088658" cy="156.12798760811705" r="11" fill="#7b64ff" stroke="#000000" strokewidth="2"></circle><rect transform="translate(246.7455777016192 190.96916142224586) translate(47.44188569088658 156.12798760811705) translate(-8.48528137423857 8.485281374238571) translate(-42.1181640625 0)" x="0" y="0" width="40.1181640625" height="14" rx="7" ry="7" fill="#ffffff" stroke="#000000"></rect><text xml:space="preserve" transform="translate(246.7455777016192 190.96916142224586) translate(47.44188569088658 156.12798760811705) translate(-8.48528137423857 8.485281374238571) translate(-42.1181640625 0)" x="7" y="10" font-family="sans-serif" font-size="10" font-weight="normal" text-anchor="undefined" fill="#000000">TYPE</text><rect transform="translate(246.7455777016192 190.96916142224586) translate(47.44188569088658 156.12798760811705) translate(-8.48528137423857 8.485281374238571) translate(-139.51171875 16)" x="0" y="0" width="139.51171875" height="12" rx="0" ry="0" fill="white" stroke="none"></rect><text xml:space="preserve" transform="translate(246.7455777016192 190.96916142224586) translate(47.44188569088658 156.12798760811705) translate(-8.48528137423857 8.485281374238571) translate(-139.51171875 16)" x="24.4580078125" y="9" font-family="sans-serif" font-size="10" font-weight="normal" text-anchor="end" fill="#000000">type:</text><text xml:space="preserve" transform="translate(246.7455777016192 190.96916142224586) translate(47.44188569088658 156.12798760811705) translate(-8.48528137423857 8.485281374238571) translate(-139.51171875 16)" x="27.236328125" y="9" font-family="sans-serif" font-size="10" font-weight="normal" text-anchor="start" fill="#000000">schema:CodeRepository</text><circle transform="translate(246.7455777016192 190.96916142224586)" cx="123.00592028395442" cy="26.711722701360898" r="11" fill="#e27300" stroke="#000000" strokewidth="2"></circle><rect transform="translate(246.7455777016192 190.96916142224586) translate(123.00592028395442 26.711722701360898) translate(8.485281374238571 -36.48528137423857) translate(0 0)" x="0" y="0" width="53.4482421875" height="14" rx="7" ry="7" fill="#ffffff" stroke="#000000"></rect><text xml:space="preserve" transform="translate(246.7455777016192 190.96916142224586) translate(123.00592028395442 26.711722701360898) translate(8.485281374238571 -36.48528137423857) translate(0 0)" x="7" y="10" font-family="sans-serif" font-size="10" font-weight="normal" text-anchor="undefined" fill="#000000">OBJECT</text><rect transform="translate(246.7455777016192 190.96916142224586) translate(123.00592028395442 26.711722701360898) translate(8.485281374238571 -36.48528137423857) translate(0 16)" x="0" y="0" width="175.1171875" height="12" rx="0" ry="0" fill="white" stroke="none"></rect><text xml:space="preserve" transform="translate(246.7455777016192 190.96916142224586) translate(123.00592028395442 26.711722701360898) translate(8.485281374238571 -36.48528137423857) translate(0 16)" x="30.5712890625" y="9" font-family="sans-serif" font-size="10" font-weight="normal" text-anchor="end" fill="#000000">name:</text><text xml:space="preserve" transform="translate(246.7455777016192 190.96916142224586) translate(123.00592028395442 26.711722701360898) translate(8.485281374238571 -36.48528137423857) translate(0 16)" x="33.349609375" y="9" font-family="sans-serif" font-size="10" font-weight="normal" text-anchor="start" fill="#000000">throughput-ec/throughput_docs</text><circle transform="translate(246.7455777016192 190.96916142224586)" cx="150.17226187481157" cy="-153.48388004800728" r="11" fill="#fa28ff" stroke="#000000" strokewidth="2"></circle><rect transform="translate(246.7455777016192 190.96916142224586) translate(150.17226187481157 -153.48388004800728) translate(8.485281374238571 -36.48528137423857) translate(0 0)" x="0" y="0" width="65.669921875" height="14" rx="7" ry="7" fill="#ffffff" stroke="#000000"></rect><text xml:space="preserve" transform="translate(246.7455777016192 190.96916142224586) translate(150.17226187481157 -153.48388004800728) translate(8.485281374238571 -36.48528137423857) translate(0 0)" x="7" y="10" font-family="sans-serif" font-size="10" font-weight="normal" text-anchor="undefined" fill="#000000">KEYWORD</text><rect transform="translate(246.7455777016192 190.96916142224586) translate(150.17226187481157 -153.48388004800728) translate(8.485281374238571 -36.48528137423857) translate(0 16)" x="0" y="0" width="82.802734375" height="12" rx="0" ry="0" fill="white" stroke="none"></rect><text xml:space="preserve" transform="translate(246.7455777016192 190.96916142224586) translate(150.17226187481157 -153.48388004800728) translate(8.485281374238571 -36.48528137423857) translate(0 16)" x="42.79296875" y="9" font-family="sans-serif" font-size="10" font-weight="normal" text-anchor="end" fill="#000000">keyword:</text><text xml:space="preserve" transform="translate(246.7455777016192 190.96916142224586) translate(150.17226187481157 -153.48388004800728) translate(8.485281374238571 -36.48528137423857) translate(0 16)" x="45.5712890625" y="9" font-family="sans-serif" font-size="10" font-weight="normal" text-anchor="start" fill="#000000">mkdocs</text><circle transform="translate(246.7455777016192 190.96916142224586)" cx="-85.12985548431278" cy="26.711722701360898" r="11" fill="#68bc00" stroke="#000000" strokewidth="2"></circle><rect transform="translate(246.7455777016192 190.96916142224586) translate(-85.12985548431278 26.711722701360898) translate(-8.48528137423857 -24.48528137423857) translate(-50.4482421875 0)" x="0" y="0" width="48.4482421875" height="14" rx="7" ry="7" fill="#ffffff" stroke="#000000"></rect><text xml:space="preserve" transform="translate(246.7455777016192 190.96916142224586) translate(-85.12985548431278 26.711722701360898) translate(-8.48528137423857 -24.48528137423857) translate(-50.4482421875 0)" x="7" y="10" font-family="sans-serif" font-size="10" font-weight="normal" text-anchor="undefined" fill="#000000">AGENT</text><circle transform="translate(246.7455777016192 190.96916142224586)" cx="-160.69389007738062" cy="156.12798760811705" r="11" fill="#a4dd00" stroke="#000000" strokewidth="2"></circle><rect transform="translate(246.7455777016192 190.96916142224586) translate(-160.69389007738062 156.12798760811705) translate(-8.48528137423857 8.485281374238571) translate(-76.56640625 0)" x="0" y="0" width="74.56640625" height="14" rx="7" ry="7" fill="#ffffff" stroke="#000000"></rect><text xml:space="preserve" transform="translate(246.7455777016192 190.96916142224586) translate(-160.69389007738062 156.12798760811705) translate(-8.48528137423857 8.485281374238571) translate(-76.56640625 0)" x="7" y="10" font-family="sans-serif" font-size="10" font-weight="normal" text-anchor="undefined" fill="#000000">AGENTTYPE</text><circle transform="translate(246.7455777016192 190.96916142224586)" cx="411.47313023160984" cy="206.12798760811705" r="11" fill="#7b64ff" stroke="#000000" strokewidth="2"></circle><rect transform="translate(246.7455777016192 190.96916142224586) translate(411.47313023160984 206.12798760811705) translate(12 -14) translate(0 0)" x="0" y="0" width="40.1181640625" height="14" rx="7" ry="7" fill="#ffffff" stroke="#000000"></rect><text xml:space="preserve" transform="translate(246.7455777016192 190.96916142224586) translate(411.47313023160984 206.12798760811705) translate(12 -14) translate(0 0)" x="7" y="10" font-family="sans-serif" font-size="10" font-weight="normal" text-anchor="undefined" fill="#000000">TYPE</text><rect transform="translate(246.7455777016192 190.96916142224586) translate(411.47313023160984 206.12798760811705) translate(12 -14) translate(0 16)" x="0" y="0" width="123.3984375" height="12" rx="0" ry="0" fill="white" stroke="none"></rect><text xml:space="preserve" transform="translate(246.7455777016192 190.96916142224586) translate(411.47313023160984 206.12798760811705) translate(12 -14) translate(0 16)" x="24.4580078125" y="9" font-family="sans-serif" font-size="10" font-weight="normal" text-anchor="end" fill="#000000">type:</text><text xml:space="preserve" transform="translate(246.7455777016192 190.96916142224586) translate(411.47313023160984 206.12798760811705) translate(12 -14) translate(0 16)" x="27.236328125" y="9" font-family="sans-serif" font-size="10" font-weight="normal" text-anchor="start" fill="#000000">schema:DataCatalog</text><circle transform="translate(246.7455777016192 190.96916142224586)" cx="248.56995487702227" cy="206.12798760811705" r="11" fill="#e27300" stroke="#000000" strokewidth="2"></circle><rect transform="translate(246.7455777016192 190.96916142224586) translate(248.56995487702227 206.12798760811705) translate(-8.48528137423857 8.485281374238571) translate(-55.4482421875 0)" x="0" y="0" width="53.4482421875" height="14" rx="7" ry="7" fill="#ffffff" stroke="#000000"></rect><text xml:space="preserve" transform="translate(246.7455777016192 190.96916142224586) translate(248.56995487702227 206.12798760811705) translate(-8.48528137423857 8.485281374238571) translate(-55.4482421875 0)" x="7" y="10" font-family="sans-serif" font-size="10" font-weight="normal" text-anchor="undefined" fill="#000000">OBJECT</text><rect transform="translate(246.7455777016192 190.96916142224586) translate(248.56995487702227 206.12798760811705) translate(-8.48528137423857 8.485281374238571) translate(-183.45703125 16)" x="0" y="0" width="183.45703125" height="12" rx="0" ry="0" fill="white" stroke="none"></rect><text xml:space="preserve" transform="translate(246.7455777016192 190.96916142224586) translate(248.56995487702227 206.12798760811705) translate(-8.48528137423857 8.485281374238571) translate(-183.45703125 16)" x="30.5712890625" y="9" font-family="sans-serif" font-size="10" font-weight="normal" text-anchor="end" fill="#000000">name:</text><text xml:space="preserve" transform="translate(246.7455777016192 190.96916142224586) translate(248.56995487702227 206.12798760811705) translate(-8.48528137423857 8.485281374238571) translate(-183.45703125 16)" x="33.349609375" y="9" font-family="sans-serif" font-size="10" font-weight="normal" text-anchor="start" fill="#000000">Throughput Annotation Database</text><circle transform="translate(246.7455777016192 190.96916142224586)" cx="269.61767016873443" cy="57.75182164000386" r="6" fill="#9f0500" stroke="#000000" strokewidth="2"></circle><rect transform="translate(246.7455777016192 190.96916142224586) translate(269.61767016873443 57.75182164000386) translate(4.286263797015736e-16 -23) translate(-40.0361328125 0)" x="0" y="0" width="78.072265625" height="14" rx="7" ry="7" fill="#ffffff" stroke="#000000"></rect><text xml:space="preserve" transform="translate(246.7455777016192 190.96916142224586) translate(269.61767016873443 57.75182164000386) translate(4.286263797015736e-16 -23) translate(-40.0361328125 0)" x="7" y="10" font-family="sans-serif" font-size="10" font-weight="normal" text-anchor="undefined" fill="#000000">ANNOTATION</text><circle transform="translate(246.7455777016192 190.96916142224586)" cx="411.47313023160984" cy="26.711722701360898" r="11" fill="#68bc00" stroke="#000000" strokewidth="2"></circle><rect transform="translate(246.7455777016192 190.96916142224586) translate(411.47313023160984 26.711722701360898) translate(8.485281374238571 8.48528137423857) translate(0 0)" x="0" y="0" width="48.4482421875" height="14" rx="7" ry="7" fill="#ffffff" stroke="#000000"></rect><text xml:space="preserve" transform="translate(246.7455777016192 190.96916142224586) translate(411.47313023160984 26.711722701360898) translate(8.485281374238571 8.48528137423857) translate(0 0)" x="7" y="10" font-family="sans-serif" font-size="10" font-weight="normal" text-anchor="undefined" fill="#000000">AGENT</text><circle transform="translate(246.7455777016192 190.96916142224586)" cx="411.47313023160984" cy="-118.50005124197604" r="11" fill="#a4dd00" stroke="#000000" strokewidth="2"></circle><rect transform="translate(246.7455777016192 190.96916142224586) translate(411.47313023160984 -118.50005124197604) translate(7.347880794884119e-16 -28) translate(-38.283203125 0)" x="0" y="0" width="74.56640625" height="14" rx="7" ry="7" fill="#ffffff" stroke="#000000"></rect><text xml:space="preserve" transform="translate(246.7455777016192 190.96916142224586) translate(411.47313023160984 -118.50005124197604) translate(7.347880794884119e-16 -28) translate(-38.283203125 0)" x="7" y="10" font-family="sans-serif" font-size="10" font-weight="normal" text-anchor="undefined" fill="#000000">AGENTTYPE</text></svg>