<svg xmlns="http://www.w3.org/2000/svg" xmlns:xlink="http://www.w3.org/1999/xlink" width="677" height="344" viewbox="0 0 677 344"><path transform="translate(36.709829840284144 130.92647516494094) scale(1) translate(123.00592028395442 26.711722701360898) rotate(120.2799549605004)" d="M 12 0 L 137.8615792870142 0" fill="none" stroke="#000000" stroke-width="2"></path><rect transform="translate(36.709829840284144 130.92647516494094) scale(1) translate(85.2239029874205 91.41985515473898) rotate(300.2799549605004) translate(0 -10) translate(0 0) translate(-19.45068359375 0)" x="0" y="0" width="38.9013671875" height="20" rx="5" ry="5" fill="#ffffff" stroke="none"></rect><text xml:space="preserve" transform="translate(36.709829840284144 130.92647516494094) scale(1) translate(85.2239029874205 91.41985515473898) rotate(300.2799549605004) translate(0 -10) translate(0 0) translate(-19.45068359375 0)" x="5" y="13" font-family="sans-serif" font-size="10" font-weight="normal" text-anchor="left" fill="#000000">isType</text><path transform="translate(36.709829840284144 130.92647516494094) scale(1) translate(269.61767016873443 156.12798760811705) rotate(0)" d="M 12 0 L 103.41351141945813 0" fill="none" stroke="#000000" stroke-width="2"></path><rect transform="translate(36.709829840284144 130.92647516494094) scale(1) translate(327.3244258784635 156.12798760811705) rotate(0) translate(0 -10) translate(0 0) translate(-19.45068359375 0)" x="0" y="0" width="38.9013671875" height="20" rx="5" ry="5" fill="#ffffff" stroke="none"></rect><text xml:space="preserve" transform="translate(36.709829840284144 130.92647516494094) scale(1) translate(327.3244258784635 156.12798760811705) rotate(0) translate(0 -10) translate(0 0) translate(-19.45068359375 0)" x="5" y="13" font-family="sans-serif" font-size="10" font-weight="normal" text-anchor="left" fill="#000000">isType</text><path transform="translate(36.709829840284144 130.92647516494094) scale(1) translate(269.61767016873443 57.75182164000386) rotate(-168.04606955815896)" d="M 7 0 L 123.7064494317921 0" fill="none" stroke="#000000" stroke-width="2"></path><polygon transform="translate(36.709829840284144 130.92647516494094) scale(1) translate(269.61767016873443 57.75182164000386) rotate(-168.04606955815896) translate(137.86157928701417 0) rotate(0)" points="-14.155129855222071,0 -15.727922061357857,5.242640687119286 0,0 -15.727922061357857,-5.242640687119286" fill="undefined" stroke="none" stroke-width="2"></polygon><rect transform="translate(36.709829840284144 130.92647516494094) scale(1) translate(205.68166547829784 44.215526541607275) rotate(11.953930441841042) translate(0 -10) translate(0 0) translate(-18.896484375 0)" x="0" y="0" width="37.79296875" height="20" rx="5" ry="5" fill="#ffffff" stroke="none"></rect><text xml:space="preserve" transform="translate(36.709829840284144 130.92647516494094) scale(1) translate(205.68166547829784 44.215526541607275) rotate(11.953930441841042) translate(0 -10) translate(0 0) translate(-18.896484375 0)" x="5" y="13" font-family="sans-serif" font-size="10" font-weight="normal" text-anchor="left" fill="#000000">Target</text><path transform="translate(36.709829840284144 130.92647516494094) scale(1) translate(269.61767016873443 57.75182164000386) rotate(-37.36415513816114)" d="M 7 0 L 133.21177394333696 0" fill="none" stroke="#000000" stroke-width="2"></path><rect transform="translate(36.709829840284144 130.92647516494094) scale(1) translate(325.3374397635412 15.206050235715018) rotate(-37.36415513816114) translate(0 -10) translate(0 0) translate(-22.7880859375 0)" x="0" y="0" width="45.576171875" height="20" rx="5" ry="5" fill="#ffffff" stroke="none"></rect><text xml:space="preserve" transform="translate(36.709829840284144 130.92647516494094) scale(1) translate(325.3374397635412 15.206050235715018) rotate(-37.36415513816114) translate(0 -10) translate(0 0) translate(-22.7880859375 0)" x="5" y="13" font-family="sans-serif" font-size="10" font-weight="normal" text-anchor="left" fill="#000000">Created</text><path transform="translate(36.709829840284144 130.92647516494094) scale(1) translate(385.03118158819257 -30.374114800986085) rotate(0)" d="M 12 0 L 133.211773943337 0" fill="none" stroke="#000000" stroke-width="2"></path><rect transform="translate(36.709829840284144 130.92647516494094) scale(1) translate(457.63706855986106 -30.374114800986085) rotate(0) translate(0 -10) translate(0 0) translate(-32.51708984375 0)" x="0" y="0" width="65.0341796875" height="20" rx="5" ry="5" fill="#ffffff" stroke="none"></rect><text xml:space="preserve" transform="translate(36.709829840284144 130.92647516494094) scale(1) translate(457.63706855986106 -30.374114800986085) rotate(0) translate(0 -10) translate(0 0) translate(-32.51708984375 0)" x="5" y="13" font-family="sans-serif" font-size="10" font-weight="normal" text-anchor="left" fill="#000000">isAgentType</text><path transform="translate(36.709829840284144 130.92647516494094) scale(1) translate(269.61767016873443 57.75182164000386) rotate(-98.33409216804516)" d="M 7 0 L 119.05664408811487 0" fill="none" stroke="#000000" stroke-width="2"></path><polygon transform="translate(36.709829840284144 130.92647516494094) scale(1) translate(269.61767016873443 57.75182164000386) rotate(-98.33409216804516) translate(133.21177394333694 0) rotate(0)" points="-14.155129855222071,0 -15.727922061357857,5.242640687119286 0,0 -15.727922061357857,-5.242640687119286" fill="undefined" stroke="none" stroke-width="2"></polygon><rect transform="translate(36.709829840284144 130.92647516494094) scale(1) translate(260.4820323228989 -4.610903611857552) rotate(81.66590783195484) translate(0 -10) translate(0 0) translate(-16.396484375 0)" x="0" y="0" width="32.79296875" height="20" rx="5" ry="5" fill="#ffffff" stroke="none"></rect><text xml:space="preserve" transform="translate(36.709829840284144 130.92647516494094) scale(1) translate(260.4820323228989 -4.610903611857552) rotate(81.66590783195484) translate(0 -10) translate(0 0) translate(-16.396484375 0)" x="5" y="13" font-family="sans-serif" font-size="10" font-weight="normal" text-anchor="left" fill="#000000">Body</text><path transform="translate(36.709829840284144 130.92647516494094) scale(1) translate(385.03118158819257 57.75182164000386) rotate(180)" d="M 12 0 L 108.41351141945813 0" fill="none" stroke="#000000" stroke-width="2"></path><rect transform="translate(36.709829840284144 130.92647516494094) scale(1) translate(324.8244258784635 57.75182164000387) rotate(360) translate(0 -10) translate(0 0) translate(-28.6279296875 0)" x="0" y="0" width="57.255859375" height="20" rx="5" ry="5" fill="#ffffff" stroke="none"></rect><text xml:space="preserve" transform="translate(36.709829840284144 130.92647516494094) scale(1) translate(324.8244258784635 57.75182164000387) rotate(360) translate(0 -10) translate(0 0) translate(-28.6279296875 0)" x="5" y="13" font-family="sans-serif" font-size="10" font-weight="normal" text-anchor="left" fill="#000000">Generated</text><path transform="translate(36.709829840284144 130.92647516494094) scale(1) translate(385.03118158819257 57.75182164000386) rotate(0)" d="M 12 0 L 133.211773943337 0" fill="none" stroke="#000000" stroke-width="2"></path><rect transform="translate(36.709829840284144 130.92647516494094) scale(1) translate(457.63706855986106 57.75182164000386) rotate(0) translate(0 -10) translate(0 0) translate(-32.51708984375 0)" x="0" y="0" width="65.0341796875" height="20" rx="5" ry="5" fill="#ffffff" stroke="none"></rect><text xml:space="preserve" transform="translate(36.709829840284144 130.92647516494094) scale(1) translate(457.63706855986106 57.75182164000386) rotate(0) translate(0 -10) translate(0 0) translate(-32.51708984375 0)" x="5" y="13" font-family="sans-serif" font-size="10" font-weight="normal" text-anchor="left" fill="#000000">isAgentType</text><path transform="translate(36.709829840284144 130.92647516494094) scale(1) translate(269.61767016873443 156.12798760811705) rotate(-138.5647004182076)" d="M 12 0 L 169.40451533440537 0" fill="none" stroke="#000000" stroke-width="2"></path><polygon transform="translate(36.709829840284144 130.92647516494094) scale(1) translate(269.61767016873443 156.12798760811705) rotate(-138.5647004182076) translate(183.55964518962745 0) rotate(0)" points="-14.155129855222071,0 -15.727922061357857,5.242640687119286 0,0 -15.727922061357857,-5.242640687119286" fill="undefined" stroke="none" stroke-width="2"></polygon><rect transform="translate(36.709829840284144 130.92647516494094) scale(1) translate(201.617870403327 96.1036027483609) rotate(41.43529958179241) translate(0 -10) translate(0 0) translate(-24.73388671875 0)" x="0" y="0" width="49.4677734375" height="20" rx="5" ry="5" fill="#ffffff" stroke="none"></rect><text xml:space="preserve" transform="translate(36.709829840284144 130.92647516494094) scale(1) translate(201.617870403327 96.1036027483609) rotate(41.43529958179241) translate(0 -10) translate(0 0) translate(-24.73388671875 0)" x="5" y="13" font-family="sans-serif" font-size="10" font-weight="normal" text-anchor="left" fill="#000000">Contains</text><circle transform="translate(36.709829840284144 130.92647516494094) scale(1)" cx="47.44188569088658" cy="156.12798760811705" r="11" fill="#7b64ff" stroke="#000000" strokewidth="2"></circle><rect transform="translate(36.709829840284144 130.92647516494094) scale(1) translate(47.44188569088658 156.12798760811705) translate(-8.48528137423857 8.485281374238571) translate(0 0) translate(-42.1181640625 0)" x="0" y="0" width="40.1181640625" height="14" rx="7" ry="7" fill="#ffffff" stroke="#000000"></rect><text xml:space="preserve" transform="translate(36.709829840284144 130.92647516494094) scale(1) translate(47.44188569088658 156.12798760811705) translate(-8.48528137423857 8.485281374238571) translate(0 0) translate(-42.1181640625 0)" x="7" y="10" font-family="sans-serif" font-size="10" font-weight="normal" text-anchor="undefined" fill="#000000">TYPE</text><rect transform="translate(36.709829840284144 130.92647516494094) scale(1) translate(47.44188569088658 156.12798760811705) translate(-8.48528137423857 8.485281374238571) translate(0 20) translate(-64.4775390625 0)" x="0" y="0" width="64.4775390625" height="12" rx="0" ry="0" fill="white" stroke="none"></rect><text xml:space="preserve" transform="translate(36.709829840284144 130.92647516494094) scale(1) translate(47.44188569088658 156.12798760811705) translate(-8.48528137423857 8.485281374238571) translate(0 20) translate(-64.4775390625 0)" x="24.4580078125" y="9" font-family="sans-serif" font-size="10" font-weight="normal" text-anchor="end" fill="#000000">type:</text><text xml:space="preserve" transform="translate(36.709829840284144 130.92647516494094) scale(1) translate(47.44188569088658 156.12798760811705) translate(-8.48528137423857 8.485281374238571) translate(0 20) translate(-64.4775390625 0)" x="27.236328125" y="9" font-family="sans-serif" font-size="10" font-weight="normal" text-anchor="start" fill="#000000">Dataset</text><circle transform="translate(36.709829840284144 130.92647516494094) scale(1)" cx="123.00592028395442" cy="26.711722701360898" r="11" fill="#e27300" stroke="#000000" strokewidth="2"></circle><rect transform="translate(36.709829840284144 130.92647516494094) scale(1) translate(123.00592028395442 26.711722701360898) translate(-8.48528137423857 -52.48528137423857) translate(0 0) translate(-55.4482421875 0)" x="0" y="0" width="53.4482421875" height="14" rx="7" ry="7" fill="#ffffff" stroke="#000000"></rect><text xml:space="preserve" transform="translate(36.709829840284144 130.92647516494094) scale(1) translate(123.00592028395442 26.711722701360898) translate(-8.48528137423857 -52.48528137423857) translate(0 0) translate(-55.4482421875 0)" x="7" y="10" font-family="sans-serif" font-size="10" font-weight="normal" text-anchor="undefined" fill="#000000">OBJECT</text><rect transform="translate(36.709829840284144 130.92647516494094) scale(1) translate(123.00592028395442 26.711722701360898) translate(-8.48528137423857 -52.48528137423857) translate(0 20) translate(-151.23046875 0)" x="0" y="0" width="151.23046875" height="24" rx="0" ry="0" fill="white" stroke="none"></rect><text xml:space="preserve" transform="translate(36.709829840284144 130.92647516494094) scale(1) translate(123.00592028395442 26.711722701360898) translate(-8.48528137423857 -52.48528137423857) translate(0 20) translate(-151.23046875 0)" x="70.048828125" y="9" font-family="sans-serif" font-size="10" font-weight="normal" text-anchor="end" fill="#000000">id:</text><text xml:space="preserve" transform="translate(36.709829840284144 130.92647516494094) scale(1) translate(123.00592028395442 26.711722701360898) translate(-8.48528137423857 -52.48528137423857) translate(0 20) translate(-151.23046875 0)" x="72.8271484375" y="9" font-family="sans-serif" font-size="10" font-weight="normal" text-anchor="start" fill="#000000">10.2345/124343r</text><text xml:space="preserve" transform="translate(36.709829840284144 130.92647516494094) scale(1) translate(123.00592028395442 26.711722701360898) translate(-8.48528137423857 -52.48528137423857) translate(0 20) translate(-151.23046875 0)" x="70.048828125" y="21" font-family="sans-serif" font-size="10" font-weight="normal" text-anchor="end" fill="#000000">additionalType:</text><text xml:space="preserve" transform="translate(36.709829840284144 130.92647516494094) scale(1) translate(123.00592028395442 26.711722701360898) translate(-8.48528137423857 -52.48528137423857) translate(0 20) translate(-151.23046875 0)" x="72.8271484375" y="21" font-family="sans-serif" font-size="10" font-weight="normal" text-anchor="start" fill="#000000">doi</text><circle transform="translate(36.709829840284144 130.92647516494094) scale(1)" cx="385.03118158819257" cy="156.12798760811705" r="11" fill="#7b64ff" stroke="#000000" strokewidth="2"></circle><rect transform="translate(36.709829840284144 130.92647516494094) scale(1) translate(385.03118158819257 156.12798760811705) translate(12 -16) translate(0 0) translate(0 0)" x="0" y="0" width="40.1181640625" height="14" rx="7" ry="7" fill="#ffffff" stroke="#000000"></rect><text xml:space="preserve" transform="translate(36.709829840284144 130.92647516494094) scale(1) translate(385.03118158819257 156.12798760811705) translate(12 -16) translate(0 0) translate(0 0)" x="7" y="10" font-family="sans-serif" font-size="10" font-weight="normal" text-anchor="undefined" fill="#000000">TYPE</text><rect transform="translate(36.709829840284144 130.92647516494094) scale(1) translate(385.03118158819257 156.12798760811705) translate(12 -16) translate(0 20) translate(0 0)" x="0" y="0" width="123.3984375" height="12" rx="0" ry="0" fill="white" stroke="none"></rect><text xml:space="preserve" transform="translate(36.709829840284144 130.92647516494094) scale(1) translate(385.03118158819257 156.12798760811705) translate(12 -16) translate(0 20) translate(0 0)" x="24.4580078125" y="9" font-family="sans-serif" font-size="10" font-weight="normal" text-anchor="end" fill="#000000">type:</text><text xml:space="preserve" transform="translate(36.709829840284144 130.92647516494094) scale(1) translate(385.03118158819257 156.12798760811705) translate(12 -16) translate(0 20) translate(0 0)" x="27.236328125" y="9" font-family="sans-serif" font-size="10" font-weight="normal" text-anchor="start" fill="#000000">schema:DataCatalog</text><circle transform="translate(36.709829840284144 130.92647516494094) scale(1)" cx="269.61767016873443" cy="156.12798760811705" r="11" fill="#e27300" stroke="#000000" strokewidth="2"></circle><rect transform="translate(36.709829840284144 130.92647516494094) scale(1) translate(269.61767016873443 156.12798760811705) translate(7.347880794884119e-16 12) translate(0 0) translate(-27.72412109375 0)" x="0" y="0" width="53.4482421875" height="14" rx="7" ry="7" fill="#ffffff" stroke="#000000"></rect><text xml:space="preserve" transform="translate(36.709829840284144 130.92647516494094) scale(1) translate(269.61767016873443 156.12798760811705) translate(7.347880794884119e-16 12) translate(0 0) translate(-27.72412109375 0)" x="7" y="10" font-family="sans-serif" font-size="10" font-weight="normal" text-anchor="undefined" fill="#000000">OBJECT</text><rect transform="translate(36.709829840284144 130.92647516494094) scale(1) translate(269.61767016873443 156.12798760811705) translate(7.347880794884119e-16 12) translate(0 20) translate(-91.728515625 0)" x="0" y="0" width="183.45703125" height="24" rx="0" ry="0" fill="white" stroke="none"></rect><text xml:space="preserve" transform="translate(36.709829840284144 130.92647516494094) scale(1) translate(269.61767016873443 156.12798760811705) translate(7.347880794884119e-16 12) translate(0 20) translate(-91.728515625 0)" x="30.5712890625" y="9" font-family="sans-serif" font-size="10" font-weight="normal" text-anchor="end" fill="#000000">name:</text><text xml:space="preserve" transform="translate(36.709829840284144 130.92647516494094) scale(1) translate(269.61767016873443 156.12798760811705) translate(7.347880794884119e-16 12) translate(0 20) translate(-91.728515625 0)" x="33.349609375" y="9" font-family="sans-serif" font-size="10" font-weight="normal" text-anchor="start" fill="#000000">Throughput Annotation Database</text><text xml:space="preserve" transform="translate(36.709829840284144 130.92647516494094) scale(1) translate(269.61767016873443 156.12798760811705) translate(7.347880794884119e-16 12) translate(0 20) translate(-91.728515625 0)" x="30.5712890625" y="21" font-family="sans-serif" font-size="10" font-weight="normal" text-anchor="end" fill="#000000">id:</text><text xml:space="preserve" transform="translate(36.709829840284144 130.92647516494094) scale(1) translate(269.61767016873443 156.12798760811705) translate(7.347880794884119e-16 12) translate(0 20) translate(-91.728515625 0)" x="33.349609375" y="21" font-family="sans-serif" font-size="10" font-weight="normal" text-anchor="start" fill="#000000">r3d0000000</text><circle transform="translate(36.709829840284144 130.92647516494094) scale(1)" cx="269.61767016873443" cy="57.75182164000386" r="6" fill="#9f0500" stroke="#000000" strokewidth="2"></circle><rect transform="translate(36.709829840284144 130.92647516494094) scale(1) translate(269.61767016873443 57.75182164000386) translate(4.286263797015736e-16 7) translate(0 0) translate(-40.0361328125 0)" x="0" y="0" width="78.072265625" height="14" rx="7" ry="7" fill="#ffffff" stroke="#000000"></rect><text xml:space="preserve" transform="translate(36.709829840284144 130.92647516494094) scale(1) translate(269.61767016873443 57.75182164000386) translate(4.286263797015736e-16 7) translate(0 0) translate(-40.0361328125 0)" x="7" y="10" font-family="sans-serif" font-size="10" font-weight="normal" text-anchor="undefined" fill="#000000">ANNOTATION</text><circle transform="translate(36.709829840284144 130.92647516494094) scale(1)" cx="385.03118158819257" cy="-30.374114800986085" r="11" fill="#68bc00" stroke="#000000" strokewidth="2"></circle><rect transform="translate(36.709829840284144 130.92647516494094) scale(1) translate(385.03118158819257 -30.374114800986085) translate(7.347880794884119e-16 -44) translate(0 0) translate(-25.22412109375 0)" x="0" y="0" width="48.4482421875" height="14" rx="7" ry="7" fill="#ffffff" stroke="#000000"></rect><text xml:space="preserve" transform="translate(36.709829840284144 130.92647516494094) scale(1) translate(385.03118158819257 -30.374114800986085) translate(7.347880794884119e-16 -44) translate(0 0) translate(-25.22412109375 0)" x="7" y="10" font-family="sans-serif" font-size="10" font-weight="normal" text-anchor="undefined" fill="#000000">AGENT</text><rect transform="translate(36.709829840284144 130.92647516494094) scale(1) translate(385.03118158819257 -30.374114800986085) translate(7.347880794884119e-16 -44) translate(0 20) translate(-59.48974609375 0)" x="0" y="0" width="118.9794921875" height="12" rx="0" ry="0" fill="white" stroke="none"></rect><text xml:space="preserve" transform="translate(36.709829840284144 130.92647516494094) scale(1) translate(385.03118158819257 -30.374114800986085) translate(7.347880794884119e-16 -44) translate(0 20) translate(-59.48974609375 0)" x="13.33984375" y="9" font-family="sans-serif" font-size="10" font-weight="normal" text-anchor="end" fill="#000000">id:</text><text xml:space="preserve" transform="translate(36.709829840284144 130.92647516494094) scale(1) translate(385.03118158819257 -30.374114800986085) translate(7.347880794884119e-16 -44) translate(0 20) translate(-59.48974609375 0)" x="16.1181640625" y="9" font-family="sans-serif" font-size="10" font-weight="normal" text-anchor="start" fill="#000000">0000-0000-0000-000X</text><circle transform="translate(36.709829840284144 130.92647516494094) scale(1)" cx="530.2429555315296" cy="-30.374114800986085" r="11" fill="#a4dd00" stroke="#000000" strokewidth="2"></circle><rect transform="translate(36.709829840284144 130.92647516494094) scale(1) translate(530.2429555315296 -30.374114800986085) translate(12 -16) translate(0 0) translate(0 0)" x="0" y="0" width="74.56640625" height="14" rx="7" ry="7" fill="#ffffff" stroke="#000000"></rect><text xml:space="preserve" transform="translate(36.709829840284144 130.92647516494094) scale(1) translate(530.2429555315296 -30.374114800986085) translate(12 -16) translate(0 0) translate(0 0)" x="7" y="10" font-family="sans-serif" font-size="10" font-weight="normal" text-anchor="undefined" fill="#000000">AGENTTYPE</text><rect transform="translate(36.709829840284144 130.92647516494094) scale(1) translate(530.2429555315296 -30.374114800986085) translate(12 -16) translate(0 20) translate(0 0)" x="0" y="0" width="89.501953125" height="12" rx="0" ry="0" fill="white" stroke="none"></rect><text xml:space="preserve" transform="translate(36.709829840284144 130.92647516494094) scale(1) translate(530.2429555315296 -30.374114800986085) translate(12 -16) translate(0 20) translate(0 0)" x="52.2607421875" y="9" font-family="sans-serif" font-size="10" font-weight="normal" text-anchor="end" fill="#000000">agentType:</text><text xml:space="preserve" transform="translate(36.709829840284144 130.92647516494094) scale(1) translate(530.2429555315296 -30.374114800986085) translate(12 -16) translate(0 20) translate(0 0)" x="55.0390625" y="9" font-family="sans-serif" font-size="10" font-weight="normal" text-anchor="start" fill="#000000">Person</text><circle transform="translate(36.709829840284144 130.92647516494094) scale(1)" cx="248.56995487702227" cy="-85.92647516494094" r="11" fill="#e27300" stroke="#000000" strokewidth="2"></circle><rect transform="translate(36.709829840284144 130.92647516494094) scale(1) translate(248.56995487702227 -85.92647516494094) translate(7.347880794884119e-16 -44) translate(0 0) translate(-27.72412109375 0)" x="0" y="0" width="53.4482421875" height="14" rx="7" ry="7" fill="#ffffff" stroke="#000000"></rect><text xml:space="preserve" transform="translate(36.709829840284144 130.92647516494094) scale(1) translate(248.56995487702227 -85.92647516494094) translate(7.347880794884119e-16 -44) translate(0 0) translate(-27.72412109375 0)" x="7" y="10" font-family="sans-serif" font-size="10" font-weight="normal" text-anchor="undefined" fill="#000000">OBJECT</text><rect transform="translate(36.709829840284144 130.92647516494094) scale(1) translate(248.56995487702227 -85.92647516494094) translate(7.347880794884119e-16 -44) translate(0 20) translate(-143.4130859375 0)" x="0" y="0" width="286.826171875" height="12" rx="0" ry="0" fill="white" stroke="none"></rect><text xml:space="preserve" transform="translate(36.709829840284144 130.92647516494094) scale(1) translate(248.56995487702227 -85.92647516494094) translate(7.347880794884119e-16 -44) translate(0 20) translate(-143.4130859375 0)" x="29.462890625" y="9" font-family="sans-serif" font-size="10" font-weight="normal" text-anchor="end" fill="#000000">value:</text><text xml:space="preserve" transform="translate(36.709829840284144 130.92647516494094) scale(1) translate(248.56995487702227 -85.92647516494094) translate(7.347880794884119e-16 -44) translate(0 20) translate(-143.4130859375 0)" x="32.2412109375" y="9" font-family="sans-serif" font-size="10" font-weight="normal" text-anchor="start" fill="#000000">This dataset is a statistical outlier in Akenbata et al, 2021</text><circle transform="translate(36.709829840284144 130.92647516494094) scale(1)" cx="385.03118158819257" cy="57.75182164000386" r="11" fill="#68bc00" stroke="#000000" strokewidth="2"></circle><rect transform="translate(36.709829840284144 130.92647516494094) scale(1) translate(385.03118158819257 57.75182164000386) translate(7.347880794884119e-16 -56) translate(0 0) translate(-25.22412109375 0)" x="0" y="0" width="48.4482421875" height="14" rx="7" ry="7" fill="#ffffff" stroke="#000000"></rect><text xml:space="preserve" transform="translate(36.709829840284144 130.92647516494094) scale(1) translate(385.03118158819257 57.75182164000386) translate(7.347880794884119e-16 -56) translate(0 0) translate(-25.22412109375 0)" x="7" y="10" font-family="sans-serif" font-size="10" font-weight="normal" text-anchor="undefined" fill="#000000">AGENT</text><rect transform="translate(36.709829840284144 130.92647516494094) scale(1) translate(385.03118158819257 57.75182164000386) translate(7.347880794884119e-16 -56) translate(0 20) translate(-58.92333984375 0)" x="0" y="0" width="117.8466796875" height="24" rx="0" ry="0" fill="white" stroke="none"></rect><text xml:space="preserve" transform="translate(36.709829840284144 130.92647516494094) scale(1) translate(385.03118158819257 57.75182164000386) translate(7.347880794884119e-16 -56) translate(0 20) translate(-58.92333984375 0)" x="30.01953125" y="9" font-family="sans-serif" font-size="10" font-weight="normal" text-anchor="end" fill="#000000">id:</text><text xml:space="preserve" transform="translate(36.709829840284144 130.92647516494094) scale(1) translate(385.03118158819257 57.75182164000386) translate(7.347880794884119e-16 -56) translate(0 20) translate(-58.92333984375 0)" x="32.7978515625" y="9" font-family="sans-serif" font-size="10" font-weight="normal" text-anchor="start" fill="#000000">ThroughputWidget</text><text xml:space="preserve" transform="translate(36.709829840284144 130.92647516494094) scale(1) translate(385.03118158819257 57.75182164000386) translate(7.347880794884119e-16 -56) translate(0 20) translate(-58.92333984375 0)" x="30.01953125" y="21" font-family="sans-serif" font-size="10" font-weight="normal" text-anchor="end" fill="#000000">token:</text><text xml:space="preserve" transform="translate(36.709829840284144 130.92647516494094) scale(1) translate(385.03118158819257 57.75182164000386) translate(7.347880794884119e-16 -56) translate(0 20) translate(-58.92333984375 0)" x="32.7978515625" y="21" font-family="sans-serif" font-size="10" font-weight="normal" text-anchor="start" fill="#000000">token</text><circle transform="translate(36.709829840284144 130.92647516494094) scale(1)" cx="530.2429555315296" cy="57.75182164000386" r="11" fill="#a4dd00" stroke="#000000" strokewidth="2"></circle><rect transform="translate(36.709829840284144 130.92647516494094) scale(1) translate(530.2429555315296 57.75182164000386) translate(12 -16) translate(0 0) translate(0 0)" x="0" y="0" width="74.56640625" height="14" rx="7" ry="7" fill="#ffffff" stroke="#000000"></rect><text xml:space="preserve" transform="translate(36.709829840284144 130.92647516494094) scale(1) translate(530.2429555315296 57.75182164000386) translate(12 -16) translate(0 0) translate(0 0)" x="7" y="10" font-family="sans-serif" font-size="10" font-weight="normal" text-anchor="undefined" fill="#000000">AGENTTYPE</text><rect transform="translate(36.709829840284144 130.92647516494094) scale(1) translate(530.2429555315296 57.75182164000386) translate(12 -16) translate(0 20) translate(0 0)" x="0" y="0" width="97.2802734375" height="12" rx="0" ry="0" fill="white" stroke="none"></rect><text xml:space="preserve" transform="translate(36.709829840284144 130.92647516494094) scale(1) translate(530.2429555315296 57.75182164000386) translate(12 -16) translate(0 20) translate(0 0)" x="52.2607421875" y="9" font-family="sans-serif" font-size="10" font-weight="normal" text-anchor="end" fill="#000000">agentType:</text><text xml:space="preserve" transform="translate(36.709829840284144 130.92647516494094) scale(1) translate(530.2429555315296 57.75182164000386) translate(12 -16) translate(0 20) translate(0 0)" x="55.0390625" y="9" font-family="sans-serif" font-size="10" font-weight="normal" text-anchor="start" fill="#000000">Software</text></svg>